<?xml version="1.0"?>
<svg xmlns="http://www.w3.org/2000/svg" xmlns:xlink="http://www.w3.org/1999/xlink" xmlns:svgjs="http://svgjs.com/svgjs" version="1.1" width="512" height="512" x="0" y="0" viewBox="0 0 512 512" style="enable-background:new 0 0 512 512" xml:space="preserve" class=""><g><g xmlns="http://www.w3.org/2000/svg"><path d="m236.994 123.596-182.864-40.115c-6.188-1.361-12.238 3.52-12.238 9.844v299.979c0 4.734 3.295 8.831 7.919 9.845l182.864 40.114c6.188 1.361 12.238-3.518 12.238-9.844v-299.979c0-4.734-3.294-8.83-7.919-9.844zm-12.238 118.13-85.782-23.041-65.016-110.218 150.798 33.081zm-162.707-113.771 59.682 101.175c.106.179.233.338.347.508v58.085l-60.029-16.336zm0 164.323 60.029 16.336v11.401 78.351l-60.029-13.168zm80.187 110.509v-82.773-19.103-60.478l82.52 22.165v158.291z" fill="#a35da2" data-original="#000000" style="" class=""/><path d="m470.108 393.304v-299.979c0-6.353-6.111-11.253-12.321-9.826l-175.809 40.115c-4.585 1.045-7.837 5.123-7.837 9.826v299.978c0 6.36 6.114 11.248 12.321 9.826l175.809-40.114c4.585-1.045 7.837-5.123 7.837-9.826zm-175.809-145.79 58.294-14.697v59.185l-58.294 14.684zm78.452 52.343v-72.122l77.2-19.463v111.637l-77.2 19.137zm77.2-112.373-77.2 19.463v-83.369l77.2-17.615zm-97.357-59.307v83.852l-58.294 14.697v-85.247zm-58.295 199.296 58.294-14.685v94.691l-58.294 13.301zm78.452 75.408v-43.068l77.2-19.137v44.59z" fill="#a35da2" data-original="#000000" style="" class=""/><path d="m508.219 33.3c-2.391-1.912-5.519-2.637-8.507-1.965l-243.712 54.754-243.712-54.754c-6.201-1.391-12.288 3.486-12.288 9.834v429.585c0 5.566 4.512 10.079 10.079 10.079h202.085c5.136 0 9.451-3.862 10.017-8.968.566-5.104-2.797-9.819-7.808-10.945l-194.216-43.633v-363.524l235.843 52.489c1.455.327-1.455.327 0 0l235.842-52.489v363.524l-194.562 43.711c-5.011 1.126-8.374 5.841-7.808 10.945.567 5.105 4.882 8.968 10.018 8.968h202.432c5.566 0 10.079-4.513 10.079-10.079v-429.663c-.001-3.061-1.393-5.957-3.782-7.869zm-386.898 427.374h-101.164v-22.727zm370.522.079h-101.513l101.513-22.806z" fill="#a35da2" data-original="#000000" style="" class=""/><circle cx="256.084" cy="470.009" r="10.079" fill="#a35da2" data-original="#000000" style="" class=""/></g></g></svg>
