<?xml version="1.0" encoding="UTF-8" standalone="no"?>
<svg
   xmlns:dc="http://purl.org/dc/elements/1.1/"
   xmlns:cc="http://creativecommons.org/ns#"
   xmlns:rdf="http://www.w3.org/1999/02/22-rdf-syntax-ns#"
   xmlns:svg="http://www.w3.org/2000/svg"
   xmlns="http://www.w3.org/2000/svg"
   viewBox="0 0 1587.4 1122.52"
   height="1122.52"
   width="1587.4"
   xml:space="preserve"
   id="svg2"
   version="1.1"><metadata
     id="metadata8"><rdf:RDF><cc:Work
         rdf:about=""><dc:format>image/svg+xml</dc:format><dc:type
           rdf:resource="http://purl.org/dc/dcmitype/StillImage" /></cc:Work></rdf:RDF></metadata><defs
     id="defs6"><clipPath
       id="clipPath42"
       clipPathUnits="userSpaceOnUse"><path
         id="path40"
         d="M 0,841.89 H 1190.551 V 0 H 0 Z" /></clipPath></defs><g
     transform="matrix(1.3333333,0,0,-1.3333333,0,1122.52)"
     id="g10"><g
       transform="translate(524.2695,486.2999)"
       id="g12"><path
         id="path14"
         style="fill:#fbd9e7;fill-opacity:1;fill-rule:nonzero;stroke:none"
         d="M 0,0 -16.463,-31.968 H 21.589 Z" /></g><g
       transform="translate(663.3437,454.3322)"
       id="g16"><path
         id="path18"
         style="fill:#87898b;fill-opacity:1;fill-rule:nonzero;stroke:none"
         d="m 0,0 33.035,0.807 -56.936,102.923 -41.404,-63.549 -38.137,58.537 -14.043,-28.01 9.384,-14.267 27.089,-40.7 -0.033,-0.051 9.712,-15.194 h 0.031 l 15.456,24.431 23.42,35.753 z" /></g><g
       transform="translate(692.1465,421.9835)"
       id="g20"><path
         id="path22"
         style="fill:#e3e1e0;fill-opacity:1;fill-rule:nonzero;stroke:none"
         d="M 0,0 3.095,-6.127 -2.23,-20.484 -8.008,-36.926 H 30.163 L 8.688,7.852 Z" /></g><g
       transform="translate(633.7988,663.0372)"
       id="g24"><path
         id="path26"
         style="fill:#e3e1e0;fill-opacity:1;fill-rule:nonzero;stroke:none"
         d="m 0,0 -18.829,-37.277 5.662,-11.58 8.419,17.149 128.207,-256.313 -245.64,-1.289 11.394,22.725 h -23.869 l -17.268,-34.185 h 303.847 z" /></g><g
       transform="translate(579.8789,644.2438)"
       id="g28"><path
         id="path30"
         style="fill:#e3e1e0;fill-opacity:1;fill-rule:nonzero;stroke:none"
         d="M 0,0 35.69,-70.658 41.532,-59.434 -9.493,41.583 -161.416,-259.186 H -3.673 l 14.069,30.75 -121.609,0.839 z" /></g><g
       transform="translate(635.0479,385.0577)"
       id="g32"><path
         id="path34"
         style="fill:#fbd9e7;fill-opacity:1;fill-rule:nonzero;stroke:none"
         d="M 0,0 14.069,30.75 -13.01,30.937 -27.754,0 Z" /></g><g
       id="g36"><g
         clip-path="url(#clipPath42)"
         id="g38"><g
           transform="translate(407.1562,339.6359)"
           id="g44"><path
             id="path46"
             style="fill:#e3e1e0;fill-opacity:1;fill-rule:nonzero;stroke:none"
             d="m 0,0 c 0.103,0.321 0.342,0.603 0.72,0.844 0.379,0.241 0.721,0.361 1.03,0.361 h 1.34 c 1.167,0 2.283,-0.091 3.348,-0.27 C 7.502,0.753 8.378,0.441 9.065,0 c 0.343,-0.241 0.584,-0.562 0.722,-0.964 0.136,-0.402 0.239,-0.925 0.308,-1.566 0.48,-3.816 0.859,-7.531 1.133,-11.145 0.275,-3.615 0.413,-7.17 0.413,-10.664 1.545,4.538 3.175,8.796 4.893,12.773 1.442,3.333 3.416,7.55 5.924,12.651 0.17,0.321 0.419,0.561 0.746,0.723 0.326,0.16 0.695,0.241 1.108,0.241 h 0.308 c 2.301,-0.403 4.396,-1.209 6.285,-2.417 0.309,-0.201 0.506,-0.513 0.592,-0.937 0.085,-0.423 0.128,-0.956 0.128,-1.6 0,-4.791 -0.121,-9.503 -0.36,-14.134 -0.069,-1.168 -0.636,-9.021 -1.7,-23.557 -0.068,-0.645 -0.266,-1.268 -0.592,-1.874 -0.327,-0.603 -0.696,-0.966 -1.107,-1.087 -0.413,-0.12 -0.937,-0.24 -1.572,-0.362 -0.635,-0.119 -1.125,-0.18 -1.467,-0.18 -1.133,0 -2.267,0.203 -3.4,0.605 -0.447,0.162 -0.781,0.505 -1.005,1.029 -0.223,0.526 -0.334,1.111 -0.334,1.756 0,1.856 0.188,4.3 0.566,7.328 0.859,6.862 1.288,11.162 1.288,12.898 -0.962,-2.049 -2.043,-4.468 -3.245,-7.259 -1.202,-2.792 -2.215,-5.152 -3.039,-7.079 -0.996,-2.371 -1.992,-4.74 -2.987,-7.11 -0.276,-0.602 -0.507,-1.034 -0.695,-1.295 -0.189,-0.261 -0.507,-0.392 -0.954,-0.392 -1.888,0 -3.271,0.131 -4.146,0.392 -0.876,0.261 -1.725,0.653 -2.55,1.175 -0.241,0.16 -0.387,0.371 -0.438,0.632 -0.051,0.262 -0.077,0.653 -0.077,1.176 0,2.048 -0.052,4.598 -0.154,7.65 -0.24,7.149 -0.361,11.507 -0.361,13.073 -1.682,-7.751 -3.365,-15.503 -5.047,-23.254 -0.138,-0.402 -0.387,-0.723 -0.748,-0.964 -0.36,-0.241 -0.73,-0.361 -1.106,-0.361 -0.826,0 -1.727,0.18 -2.705,0.542 -0.979,0.362 -1.965,0.823 -2.961,1.385 -0.275,0.121 -0.413,0.442 -0.413,0.964 v 0.724 c 1.717,7.791 2.712,12.309 2.988,13.555 0.789,3.533 1.854,8.012 3.193,13.434 C -2.37,-8.877 -1.203,-4.378 0,0" /></g><g
           transform="translate(458.5605,324.8156)"
           id="g48"><path
             id="path50"
             style="fill:#e3e1e0;fill-opacity:1;fill-rule:nonzero;stroke:none"
             d="m 0,0 c -0.066,-0.201 -0.512,-1.566 -1.338,-4.097 -0.594,-1.807 -1.007,-3.012 -1.237,-3.615 l 1.751,-0.12 H 0 L 0,-4.1 Z M 8.55,12.165 C 8.825,8.464 9.031,4.995 9.168,1.758 9.305,-1.48 9.374,-4.928 9.374,-8.587 c 0,-5.873 -0.271,-11.824 -0.815,-17.857 -0.102,-0.805 -0.518,-1.427 -1.248,-1.869 -0.73,-0.443 -1.572,-0.665 -2.521,-0.665 -1.19,0 -2.286,0.312 -3.288,0.938 C 0.5,-27.415 0,-26.639 0,-25.71 l -0.206,6.898 0.206,3.39 c -0.725,-0.764 -1.434,-1.296 -2.124,-1.598 -0.691,-0.3 -1.468,-0.451 -2.331,-0.451 l -1.761,0.12 c -1.174,-3.31 -2.659,-6.985 -4.454,-11.022 -0.035,-0.161 -0.207,-0.302 -0.518,-0.423 -0.311,-0.122 -0.622,-0.182 -0.931,-0.182 -1.279,0 -2.642,0.424 -4.093,1.273 -1.621,0.968 -2.434,1.957 -2.434,2.966 v 0.363 c 0.206,1.654 0.55,3.128 1.03,4.421 0.378,0.929 0.756,1.876 1.134,2.846 l -0.31,-0.12 c -0.412,0 -0.721,0.12 -0.927,0.361 -0.206,0.241 -0.309,0.52 -0.309,0.844 0.103,1.404 0.352,2.81 0.747,4.216 0.395,1.406 0.936,2.652 1.622,3.735 0.173,0.321 0.473,0.543 0.902,0.663 0.428,0.121 0.918,0.181 1.467,0.181 h 1.443 c 1.51,3.615 3.021,7.229 4.533,10.844 1.785,4.177 3.364,7.712 4.739,10.603 0.343,0.642 0.883,1.124 1.622,1.446 0.738,0.321 1.571,0.482 2.498,0.482 1.648,0 3.227,-0.403 4.739,-1.207 1.511,-0.803 2.266,-1.73 2.266,-2.774" /></g><g
           transform="translate(480.0903,339.3937)"
           id="g52"><path
             id="path54"
             style="fill:#e3e1e0;fill-opacity:1;fill-rule:nonzero;stroke:none"
             d="m 0,0 c 0.103,0.562 0.429,0.984 0.979,1.266 0.548,0.281 1.184,0.422 1.905,0.422 1.134,0 2.378,-0.281 3.735,-0.843 1.356,-0.563 2.308,-1.205 2.859,-1.928 0.995,-1.446 1.716,-3.173 2.163,-5.181 0.343,-1.647 1.03,-6.105 2.06,-13.375 0.515,3.071 1.202,6.363 2.06,9.876 1.305,5.291 2.061,8.381 2.267,9.27 0.034,0.564 0.309,1.07 0.824,1.515 0.515,0.444 0.996,0.666 1.442,0.666 H 20.5 c 0.893,0 1.794,-0.192 2.705,-0.575 0.909,-0.383 1.828,-0.917 2.755,-1.601 0.171,-0.123 0.352,-0.406 0.54,-0.848 0.189,-0.444 0.284,-0.97 0.284,-1.573 v -0.605 c -0.721,-3.347 -1.666,-7.359 -2.833,-12.036 -0.446,-1.815 -1.493,-5.807 -3.141,-11.977 -1.409,-5.324 -2.439,-9.254 -3.091,-11.795 l -0.104,-0.726 c 0.275,-0.483 0.413,-0.928 0.413,-1.331 v -0.362 c -0.034,-0.525 -0.379,-0.958 -1.03,-1.3 -0.653,-0.344 -1.443,-0.515 -2.37,-0.515 -1.545,0 -2.97,0.402 -4.275,1.207 -1.511,0.926 -2.387,2.134 -2.627,3.623 -0.618,3.262 -1.219,7.69 -1.803,13.286 -0.412,3.985 -0.704,6.681 -0.875,8.091 -1.683,-8.574 -3.605,-16.663 -5.769,-24.266 -0.103,-0.446 -0.327,-0.87 -0.669,-1.275 -0.344,-0.405 -0.704,-0.626 -1.083,-0.666 h -1.75 c -0.894,0 -1.71,0.091 -2.447,0.271 -0.738,0.181 -1.469,0.493 -2.189,0.935 -0.24,0.121 -0.42,0.381 -0.541,0.786 -0.12,0.401 -0.18,0.863 -0.18,1.386 l 0.102,1.206 c 0.962,4.425 1.958,8.748 2.988,12.971 0.069,0.361 1.167,4.726 3.297,13.091 C -1.58,-6.476 -0.515,-2.174 0,0" /></g><g
           transform="translate(523.2949,341.6847)"
           id="g56"><path
             id="path58"
             style="fill:#e3e1e0;fill-opacity:1;fill-rule:nonzero;stroke:none"
             d="m 0,0 h 0.41 c 2.875,0 5.372,-0.904 7.494,-2.711 2.464,-2.089 3.695,-4.961 3.695,-8.616 v -1.927 c 0,-0.723 -0.746,-1.387 -2.24,-1.989 -1.494,-0.603 -2.979,-0.903 -4.456,-0.903 -0.962,0 -1.75,0.17 -2.369,0.512 -0.617,0.341 -0.927,0.814 -0.927,1.416 0,2.57 -0.59,3.856 -1.769,3.856 -2.082,0 -3.99,-1.958 -5.724,-5.874 -1.736,-3.915 -2.603,-7.863 -2.603,-11.838 v -1.447 c 0,-1.607 0.189,-3.033 0.568,-4.277 0.377,-1.246 0.943,-1.867 1.699,-1.867 0.755,0 1.502,0.411 2.24,1.234 0.738,0.823 1.263,1.737 1.571,2.742 h -0.206 l -0.926,-0.122 -0.722,0.242 c -0.103,0.16 -0.249,0.361 -0.437,0.602 -0.19,0.241 -0.284,0.442 -0.284,0.603 0,1.365 0.059,2.57 0.18,3.615 0.12,1.043 0.335,2.088 0.644,3.133 0.137,0.441 0.403,0.813 0.799,1.114 0.394,0.302 0.815,0.491 1.261,0.572 1.305,0.362 2.808,0.654 4.507,0.874 1.7,0.22 3.391,0.331 5.074,0.331 h 2.472 c 0.343,0 0.635,-0.201 0.876,-0.602 0.24,-0.402 0.361,-0.804 0.361,-1.205 v -0.723 c 0,-0.964 -0.07,-1.867 -0.207,-2.711 -0.137,-0.844 -0.481,-1.948 -1.03,-3.313 -0.172,-0.403 -0.472,-0.673 -0.901,-0.814 -0.429,-0.14 -0.816,-0.271 -1.159,-0.391 -0.378,-3.856 -2.095,-7.511 -5.151,-10.965 -3.056,-3.455 -6.181,-5.181 -9.374,-5.181 -2.953,0 -5.529,1.485 -7.726,4.458 -2.197,2.973 -3.297,6.587 -3.297,10.844 v 0.361 c 0,7.671 1.42,14.48 4.26,20.424 C -10.044,-3.515 -5.579,0 0,0" /></g><g
           transform="translate(552.7158,324.8156)"
           id="g60"><path
             id="path62"
             style="fill:#e3e1e0;fill-opacity:1;fill-rule:nonzero;stroke:none"
             d="m 0,0 c -0.066,-0.201 -0.512,-1.566 -1.338,-4.097 -0.594,-1.807 -1.007,-3.012 -1.238,-3.615 l 1.752,-0.12 H 0 L 0,-4.1 Z M 8.55,12.165 C 8.825,8.464 9.031,4.995 9.168,1.758 9.305,-1.48 9.374,-4.928 9.374,-8.587 c 0,-5.873 -0.271,-11.824 -0.815,-17.857 -0.102,-0.805 -0.518,-1.427 -1.248,-1.869 -0.731,-0.443 -1.572,-0.665 -2.521,-0.665 -1.19,0 -2.286,0.312 -3.288,0.938 C 0.5,-27.415 0,-26.639 0,-25.71 l -0.207,6.898 0.207,3.39 c -0.726,-0.764 -1.434,-1.296 -2.124,-1.598 -0.691,-0.3 -1.469,-0.451 -2.331,-0.451 l -1.761,0.12 c -1.174,-3.31 -2.659,-6.985 -4.454,-11.022 -0.035,-0.161 -0.207,-0.302 -0.518,-0.423 -0.311,-0.122 -0.622,-0.182 -0.932,-0.182 -1.278,0 -2.641,0.424 -4.092,1.273 -1.622,0.968 -2.434,1.957 -2.434,2.966 v 0.363 c 0.206,1.654 0.55,3.128 1.03,4.421 0.378,0.929 0.756,1.876 1.134,2.846 l -0.31,-0.12 c -0.412,0 -0.721,0.12 -0.927,0.361 -0.206,0.241 -0.309,0.52 -0.309,0.844 0.103,1.404 0.352,2.81 0.747,4.216 0.395,1.406 0.936,2.652 1.622,3.735 0.172,0.321 0.473,0.543 0.902,0.663 0.428,0.121 0.918,0.181 1.467,0.181 h 1.443 c 1.51,3.615 3.021,7.229 4.532,10.844 1.786,4.177 3.365,7.712 4.739,10.603 0.344,0.642 0.884,1.124 1.623,1.446 0.738,0.321 1.571,0.482 2.498,0.482 1.648,0 3.227,-0.403 4.739,-1.207 1.51,-0.803 2.266,-1.73 2.266,-2.774" /></g><g
           transform="translate(452.6367,332.7384)"
           id="g64"><path
             id="path66"
             style="fill:#87898b;fill-opacity:1;fill-rule:nonzero;stroke:none"
             d="m 0,0 c -0.066,-0.201 -0.512,-1.565 -1.338,-4.097 -0.594,-1.807 -1.007,-3.012 -1.237,-3.615 l 1.751,-0.119 H 0 v 3.732 z M 8.55,12.165 C 8.825,8.464 9.031,4.995 9.168,1.759 9.305,-1.479 9.374,-4.928 9.374,-8.587 c 0,-5.873 -0.271,-11.824 -0.815,-17.857 -0.102,-0.805 -0.518,-1.427 -1.248,-1.869 -0.73,-0.443 -1.572,-0.665 -2.521,-0.665 -1.19,0 -2.286,0.313 -3.288,0.939 C 0.5,-27.415 0,-26.638 0,-25.71 l -0.206,6.899 0.206,3.389 c -0.725,-0.764 -1.434,-1.296 -2.124,-1.597 -0.691,-0.301 -1.468,-0.452 -2.331,-0.452 l -1.761,0.12 c -1.174,-3.309 -2.659,-6.984 -4.454,-11.021 -0.035,-0.162 -0.207,-0.303 -0.518,-0.424 -0.311,-0.121 -0.622,-0.182 -0.932,-0.182 -1.278,0 -2.641,0.424 -4.092,1.273 -1.621,0.968 -2.434,1.958 -2.434,2.966 v 0.364 c 0.206,1.654 0.55,3.127 1.03,4.42 0.378,0.929 0.756,1.876 1.134,2.846 l -0.31,-0.12 c -0.412,0 -0.721,0.12 -0.927,0.361 -0.206,0.241 -0.309,0.521 -0.309,0.844 0.103,1.404 0.352,2.81 0.747,4.216 0.395,1.406 0.936,2.652 1.622,3.736 0.172,0.321 0.473,0.542 0.902,0.662 0.428,0.121 0.918,0.181 1.467,0.181 h 1.443 c 1.51,3.615 3.021,7.229 4.532,10.844 1.786,4.177 3.365,7.712 4.74,10.603 0.343,0.642 0.883,1.124 1.622,1.446 0.738,0.321 1.571,0.482 2.498,0.482 1.648,0 3.227,-0.403 4.739,-1.207 1.51,-0.803 2.266,-1.729 2.266,-2.774" /></g><g
           transform="translate(474.1665,347.3165)"
           id="g68"><path
             id="path70"
             style="fill:#87898b;fill-opacity:1;fill-rule:nonzero;stroke:none"
             d="m 0,0 c 0.103,0.562 0.429,0.985 0.979,1.266 0.548,0.281 1.184,0.422 1.905,0.422 1.134,0 2.377,-0.281 3.735,-0.843 1.356,-0.563 2.308,-1.205 2.859,-1.928 0.995,-1.445 1.716,-3.173 2.163,-5.181 0.343,-1.647 1.03,-6.105 2.06,-13.375 0.515,3.071 1.202,6.363 2.06,9.876 1.305,5.291 2.061,8.381 2.267,9.27 0.034,0.565 0.308,1.071 0.824,1.515 0.515,0.444 0.996,0.666 1.442,0.666 H 20.5 c 0.893,0 1.794,-0.191 2.705,-0.575 0.909,-0.383 1.828,-0.917 2.755,-1.601 0.171,-0.122 0.352,-0.406 0.54,-0.848 0.189,-0.444 0.284,-0.969 0.284,-1.573 v -0.605 c -0.721,-3.347 -1.666,-7.358 -2.833,-12.036 -0.447,-1.815 -1.493,-5.807 -3.141,-11.977 -1.409,-5.324 -2.439,-9.254 -3.091,-11.795 l -0.104,-0.726 c 0.275,-0.483 0.413,-0.927 0.413,-1.331 v -0.362 c -0.034,-0.525 -0.379,-0.958 -1.03,-1.3 -0.653,-0.344 -1.443,-0.515 -2.37,-0.515 -1.545,0 -2.97,0.402 -4.275,1.207 -1.511,0.927 -2.387,2.134 -2.627,3.623 -0.618,3.262 -1.219,7.69 -1.803,13.286 -0.412,3.985 -0.704,6.681 -0.875,8.091 -1.683,-8.574 -3.606,-16.663 -5.769,-24.266 -0.103,-0.445 -0.327,-0.869 -0.669,-1.275 -0.344,-0.404 -0.705,-0.626 -1.083,-0.666 h -1.75 c -0.894,0 -1.71,0.091 -2.447,0.271 -0.738,0.181 -1.469,0.493 -2.189,0.935 -0.241,0.121 -0.42,0.382 -0.541,0.786 -0.12,0.401 -0.18,0.863 -0.18,1.387 l 0.102,1.206 c 0.962,4.424 1.958,8.747 2.988,12.97 0.069,0.361 1.167,4.726 3.297,13.091 C -1.58,-6.476 -0.515,-2.173 0,0" /></g><g
           transform="translate(517.3711,349.6075)"
           id="g72"><path
             id="path74"
             style="fill:#87898b;fill-opacity:1;fill-rule:nonzero;stroke:none"
             d="m 0,0 h 0.41 c 2.874,0 5.372,-0.903 7.494,-2.711 2.464,-2.089 3.695,-4.961 3.695,-8.615 v -1.928 c 0,-0.723 -0.746,-1.386 -2.24,-1.988 -1.494,-0.603 -2.979,-0.904 -4.456,-0.904 -0.962,0 -1.75,0.17 -2.369,0.513 -0.618,0.34 -0.927,0.813 -0.927,1.415 0,2.571 -0.59,3.857 -1.769,3.857 -2.082,0 -3.99,-1.958 -5.724,-5.874 -1.736,-3.916 -2.603,-7.864 -2.603,-11.839 v -1.447 c 0,-1.607 0.189,-3.033 0.568,-4.277 0.377,-1.246 0.943,-1.867 1.698,-1.867 0.756,0 1.502,0.411 2.241,1.234 0.738,0.823 1.262,1.738 1.571,2.743 h -0.206 l -0.926,-0.122 -0.722,0.242 c -0.103,0.159 -0.249,0.36 -0.437,0.601 -0.19,0.241 -0.284,0.442 -0.284,0.603 0,1.365 0.059,2.57 0.18,3.615 0.12,1.044 0.335,2.089 0.644,3.134 0.137,0.44 0.403,0.812 0.799,1.114 0.394,0.301 0.815,0.49 1.261,0.571 1.305,0.362 2.808,0.654 4.507,0.874 1.7,0.221 3.391,0.331 5.074,0.331 h 2.472 c 0.343,0 0.635,-0.201 0.876,-0.602 0.24,-0.402 0.361,-0.804 0.361,-1.205 v -0.723 c 0,-0.963 -0.07,-1.867 -0.207,-2.711 -0.137,-0.844 -0.481,-1.948 -1.03,-3.313 -0.172,-0.403 -0.472,-0.673 -0.901,-0.813 -0.43,-0.141 -0.816,-0.272 -1.159,-0.392 -0.378,-3.856 -2.095,-7.51 -5.151,-10.965 -3.056,-3.455 -6.181,-5.181 -9.374,-5.181 -2.953,0 -5.529,1.486 -7.726,4.458 -2.197,2.973 -3.297,6.587 -3.297,10.845 v 0.36 c 0,7.671 1.42,14.48 4.26,20.424 C -10.044,-3.515 -5.579,0 0,0" /></g><g
           transform="translate(546.792,332.7384)"
           id="g76"><path
             id="path78"
             style="fill:#87898b;fill-opacity:1;fill-rule:nonzero;stroke:none"
             d="m 0,0 c -0.066,-0.201 -0.512,-1.565 -1.338,-4.097 -0.594,-1.807 -1.007,-3.012 -1.238,-3.615 l 1.752,-0.119 H 0 v 3.732 z M 8.55,12.165 C 8.825,8.464 9.031,4.995 9.167,1.759 9.305,-1.479 9.374,-4.928 9.374,-8.587 c 0,-5.873 -0.272,-11.824 -0.815,-17.857 -0.102,-0.805 -0.518,-1.427 -1.248,-1.869 -0.731,-0.443 -1.572,-0.665 -2.521,-0.665 -1.191,0 -2.286,0.313 -3.288,0.939 C 0.5,-27.415 0,-26.638 0,-25.71 l -0.207,6.899 0.207,3.389 c -0.726,-0.764 -1.434,-1.296 -2.124,-1.597 -0.691,-0.301 -1.469,-0.452 -2.331,-0.452 l -1.761,0.12 c -1.175,-3.309 -2.659,-6.984 -4.454,-11.021 -0.035,-0.162 -0.207,-0.303 -0.518,-0.424 -0.311,-0.121 -0.622,-0.182 -0.932,-0.182 -1.278,0 -2.641,0.424 -4.092,1.273 -1.622,0.968 -2.434,1.958 -2.434,2.966 v 0.364 c 0.206,1.654 0.55,3.127 1.029,4.42 0.379,0.929 0.757,1.876 1.134,2.846 l -0.309,-0.12 c -0.412,0 -0.721,0.12 -0.927,0.361 -0.206,0.241 -0.309,0.521 -0.309,0.844 0.103,1.404 0.352,2.81 0.746,4.216 0.396,1.406 0.937,2.652 1.623,3.736 0.172,0.321 0.473,0.542 0.902,0.662 0.428,0.121 0.918,0.181 1.467,0.181 h 1.443 c 1.51,3.615 3.021,7.229 4.532,10.844 1.786,4.177 3.365,7.712 4.739,10.603 0.344,0.642 0.884,1.124 1.623,1.446 0.738,0.321 1.571,0.482 2.498,0.482 1.648,0 3.227,-0.403 4.738,-1.207 C 7.794,14.136 8.55,13.21 8.55,12.165" /></g><g
           transform="translate(404.7627,347.4083)"
           id="g80"><path
             id="path82"
             style="fill:#87898b;fill-opacity:1;fill-rule:nonzero;stroke:none"
             d="m 0,0 c 0.103,0.321 0.342,0.603 0.72,0.844 0.379,0.241 0.721,0.361 1.03,0.361 h 1.34 c 1.167,0 2.283,-0.091 3.348,-0.27 C 7.502,0.753 8.378,0.441 9.065,0 c 0.343,-0.241 0.583,-0.562 0.722,-0.964 0.136,-0.402 0.239,-0.925 0.308,-1.566 0.48,-3.816 0.859,-7.531 1.133,-11.145 0.275,-3.615 0.413,-7.17 0.413,-10.664 1.545,4.538 3.175,8.796 4.893,12.773 1.442,3.333 3.416,7.55 5.923,12.651 0.171,0.321 0.42,0.561 0.747,0.723 0.326,0.16 0.695,0.241 1.108,0.241 h 0.308 c 2.301,-0.403 4.396,-1.209 6.285,-2.417 0.308,-0.201 0.506,-0.513 0.591,-0.937 0.086,-0.423 0.129,-0.956 0.129,-1.6 0,-4.791 -0.121,-9.503 -0.36,-14.134 -0.07,-1.168 -0.636,-9.021 -1.7,-23.557 -0.069,-0.645 -0.266,-1.268 -0.592,-1.874 -0.327,-0.603 -0.696,-0.966 -1.107,-1.087 -0.413,-0.12 -0.937,-0.24 -1.572,-0.362 -0.636,-0.119 -1.125,-0.18 -1.468,-0.18 -1.132,0 -2.266,0.203 -3.399,0.605 -0.447,0.162 -0.781,0.505 -1.005,1.029 -0.223,0.526 -0.334,1.111 -0.334,1.756 0,1.856 0.188,4.3 0.566,7.328 0.859,6.862 1.288,11.162 1.288,12.898 -0.962,-2.049 -2.043,-4.468 -3.245,-7.259 -1.202,-2.792 -2.215,-5.152 -3.039,-7.079 -0.996,-2.371 -1.992,-4.74 -2.987,-7.11 -0.276,-0.602 -0.507,-1.034 -0.695,-1.295 -0.189,-0.261 -0.508,-0.392 -0.954,-0.392 -1.889,0 -3.271,0.131 -4.146,0.392 -0.876,0.261 -1.725,0.653 -2.55,1.175 -0.241,0.16 -0.387,0.371 -0.438,0.632 -0.051,0.262 -0.077,0.653 -0.077,1.176 0,2.048 -0.052,4.598 -0.154,7.65 -0.24,7.149 -0.362,11.507 -0.362,13.073 -1.681,-7.751 -3.364,-15.503 -5.046,-23.254 -0.138,-0.402 -0.387,-0.723 -0.748,-0.964 -0.36,-0.241 -0.73,-0.361 -1.106,-0.361 -0.826,0 -1.727,0.18 -2.705,0.542 -0.979,0.362 -1.965,0.823 -2.961,1.385 -0.275,0.121 -0.413,0.442 -0.413,0.964 v 0.724 c 1.717,7.791 2.712,12.309 2.988,13.555 0.789,3.533 1.854,8.012 3.193,13.434 C -2.37,-8.877 -1.203,-4.378 0,0" /></g><g
           transform="translate(588.9443,330.6876)"
           id="g84"><path
             id="path86"
             style="fill:#e3e1e0;fill-opacity:1;fill-rule:nonzero;stroke:none"
             d="m 0,0 c -0.207,-1.016 -1.006,-1.901 -2.399,-2.653 -1.393,-0.753 -2.726,-1.128 -3.998,-1.128 -0.584,0 -1.075,0.11 -1.47,0.334 -0.396,0.224 -0.637,0.662 -0.722,1.312 -0.086,0.651 -0.181,1.444 -0.284,2.38 l 0.103,0.976 v 0.244 c 0,0.893 -0.343,1.342 -1.031,1.342 -0.344,0 -0.706,-0.121 -1.083,-0.367 -0.379,-0.244 -0.637,-0.487 -0.774,-0.731 -1.411,-2.604 -2.579,-5.43 -3.509,-8.48 -1.168,-3.824 -1.752,-7.504 -1.752,-11.042 l 0.102,-1.586 c 0,-0.53 0.129,-0.926 0.387,-1.191 0.258,-0.264 0.576,-0.397 0.954,-0.397 0.309,0 0.636,0.072 0.98,0.215 0.344,0.141 0.636,0.314 0.877,0.518 0.413,0.365 0.911,1.464 1.496,3.295 0.31,0.934 0.636,1.575 0.98,1.921 0.344,0.345 0.869,0.619 1.574,0.824 0.705,0.202 1.419,0.305 2.14,0.305 1.066,0 1.987,-0.224 2.761,-0.672 0.773,-0.448 1.161,-1.119 1.161,-2.013 0,-4.312 -1.445,-8.155 -4.334,-11.53 -2.888,-3.377 -6.087,-5.064 -9.595,-5.064 -2.785,0 -5.038,1.544 -6.758,4.637 -1.547,2.765 -2.321,5.896 -2.321,9.395 v 1.219 c 0,8.054 1.479,15.049 4.437,20.988 3.473,6.996 8.287,10.494 14.444,10.494 h 0.721 c 2.27,0 4.041,-0.968 5.314,-2.898 C -0.328,8.715 0.309,6.346 0.309,3.539 0.309,2.277 0.207,1.099 0,0" /></g><g
           transform="translate(600.9111,332.8839)"
           id="g88"><path
             id="path90"
             style="fill:#e3e1e0;fill-opacity:1;fill-rule:nonzero;stroke:none"
             d="M 0,0 3.817,-1.22 C 4.093,-1.301 4.385,-1.525 4.694,-1.891 5.005,-2.257 5.159,-2.684 5.159,-3.172 5.056,-3.945 4.831,-5.145 4.489,-6.771 4.145,-8.398 3.921,-9.639 3.817,-10.493 l 0.62,-0.121 c 1.444,0 2.889,0.833 4.333,2.501 1.445,1.667 2.167,3.273 2.167,4.82 v 0.243 c 0,1.261 -0.516,2.166 -1.547,2.715 C 8.357,0.215 7.05,0.489 5.468,0.489 4.643,0.489 3.783,0.437 2.889,0.336 1.994,0.233 1.032,0.123 0,0 m -6.595,7.932 c 2.622,1.098 4.814,1.881 6.574,2.349 1.761,0.467 3.642,0.7 5.644,0.7 H 6.97 c 3.83,0 6.988,-1.447 9.473,-4.341 2.312,-2.692 3.469,-5.81 3.469,-9.357 v -0.124 c 0,-3.221 -0.619,-6.013 -1.857,-8.378 -1.547,-2.894 -4.058,-5.198 -7.532,-6.911 2.373,-4.934 4.747,-9.867 7.12,-14.801 l 0.103,-0.733 c 0,-0.571 -0.139,-1.021 -0.413,-1.346 -1.72,-1.63 -3.543,-2.853 -5.468,-3.669 h -0.928 c -0.654,0 -1.032,0.204 -1.135,0.611 -1.342,2.196 -2.804,4.98 -4.385,8.357 -1.376,2.93 -2.733,5.877 -4.076,8.847 -0.756,-4.19 -1.72,-8.258 -2.888,-12.202 -0.103,-0.408 -0.283,-0.793 -0.541,-1.16 -0.259,-0.366 -0.525,-0.548 -0.801,-0.548 l -0.825,-0.122 c -1.066,0 -1.985,0.101 -2.759,0.304 -0.774,0.203 -1.815,0.589 -3.121,1.16 -0.551,0.162 -0.825,0.65 -0.825,1.464 l 0.102,0.366 c 0.31,1.912 0.929,4.982 1.857,9.212 0.929,4.231 1.789,8.033 2.58,11.409 0.275,1.179 1.1,4.595 2.476,10.25 -1.135,-0.286 -2.27,-0.57 -3.405,-0.855 L -7.634,-1.83 c -0.619,0 -0.929,0.406 -0.929,1.221 0,1.545 0.216,3.294 0.647,5.247 0.432,1.952 0.872,3.05 1.321,3.294" /></g><g
           transform="translate(637.8457,327.2716)"
           id="g92"><path
             id="path94"
             style="fill:#e3e1e0;fill-opacity:1;fill-rule:nonzero;stroke:none"
             d="M 0,0 C -0.066,-0.203 -0.513,-1.586 -1.34,-4.148 -1.934,-5.979 -2.349,-7.199 -2.579,-7.81 l 1.754,-0.121 H 0 v 3.78 z M 8.563,12.318 C 8.838,8.571 9.045,5.059 9.182,1.78 9.319,-1.499 9.389,-4.99 9.389,-8.696 c 0,-5.948 -0.273,-11.974 -0.817,-18.083 -0.102,-0.816 -0.518,-1.446 -1.25,-1.894 -0.731,-0.448 -1.574,-0.672 -2.525,-0.672 -1.192,0 -2.289,0.316 -3.292,0.949 C 0.501,-27.763 0,-26.976 0,-26.036 L -0.206,-19.05 0,-15.618 c -0.726,-0.774 -1.436,-1.312 -2.127,-1.616 -0.691,-0.306 -1.471,-0.458 -2.334,-0.458 l -1.765,0.121 c -1.174,-3.352 -2.662,-7.074 -4.46,-11.161 -0.035,-0.164 -0.207,-0.307 -0.518,-0.429 -0.312,-0.123 -0.623,-0.184 -0.934,-0.184 -1.28,0 -2.645,0.429 -4.097,1.288 -1.625,0.981 -2.439,1.983 -2.439,3.004 v 0.368 c 0.206,1.676 0.551,3.167 1.031,4.477 0.379,0.94 0.758,1.899 1.136,2.882 l -0.309,-0.122 c -0.413,0 -0.722,0.122 -0.929,0.366 -0.206,0.244 -0.31,0.527 -0.31,0.854 0.104,1.422 0.353,2.847 0.748,4.271 0.396,1.423 0.938,2.685 1.625,3.782 0.172,0.325 0.474,0.549 0.903,0.671 0.429,0.122 0.92,0.183 1.47,0.183 h 1.445 c 1.512,3.661 3.025,7.321 4.539,10.982 1.788,4.23 3.37,7.81 4.746,10.737 0.344,0.651 0.885,1.138 1.625,1.464 0.739,0.325 1.573,0.49 2.502,0.49 1.65,0 3.232,-0.41 4.745,-1.223 1.514,-0.815 2.27,-1.752 2.27,-2.811" /></g><g
           transform="translate(655.8994,341.673)"
           id="g96"><path
             id="path98"
             style="fill:#e3e1e0;fill-opacity:1;fill-rule:nonzero;stroke:none"
             d="M 0,0 C 0,0.69 0.164,1.229 0.491,1.615 0.817,2 1.238,2.192 1.755,2.192 H 2.063 C 3.13,1.95 4.205,1.715 5.288,1.492 6.372,1.269 7.429,0.973 8.461,0.606 8.701,0.485 8.916,0.251 9.105,-0.095 9.294,-0.44 9.39,-0.776 9.39,-1.101 v -1.83 c 0,-1.872 -0.052,-4.21 -0.156,-7.016 -0.241,-6.549 -0.36,-10.799 -0.36,-12.751 0.894,2.277 1.856,4.962 2.888,8.052 0.894,2.685 1.788,5.39 2.682,8.116 1.066,3.05 2.098,5.673 3.095,7.87 0.413,0.731 1.136,1.098 2.167,1.098 0.895,0 1.788,-0.144 2.683,-0.427 0.584,-0.163 1.477,-0.55 2.682,-1.159 0.275,0 0.481,-0.328 0.619,-0.977 0,-2.237 0.051,-4.983 0.156,-8.236 0.239,-7.606 0.36,-12.385 0.36,-14.337 0.652,2.277 1.461,4.982 2.424,8.113 1.136,3.701 2.116,6.773 2.941,9.214 1.065,3.172 1.925,5.49 2.579,6.954 0.103,0.284 0.327,0.498 0.67,0.641 0.344,0.141 0.74,0.214 1.187,0.214 h 0.825 c 2.029,-0.407 3.748,-1.137 5.159,-2.195 0.482,-0.446 0.722,-1.096 0.722,-1.949 L 42.61,-2.56 c -1.444,-4.792 -2.889,-9.219 -4.333,-13.282 -1.032,-2.924 -2.631,-7.23 -4.798,-12.917 -0.998,-2.598 -2.665,-6.864 -5.003,-12.794 -0.206,-0.529 -0.508,-1.016 -0.903,-1.463 -0.396,-0.447 -0.817,-0.69 -1.264,-0.73 h -1.032 c -0.894,0 -1.805,0.091 -2.733,0.272 -0.93,0.184 -1.875,0.458 -2.838,0.823 -0.275,0.122 -0.551,0.376 -0.825,0.76 -0.276,0.386 -0.413,0.74 -0.413,1.066 l -0.516,20.567 c -0.825,-3.287 -2.133,-7.181 -3.92,-11.683 -1.204,-3.043 -2.648,-6.371 -4.333,-9.98 -0.276,-0.568 -0.672,-1.015 -1.187,-1.339 -0.516,-0.324 -1.083,-0.486 -1.701,-0.486 -0.999,0 -1.97,0.151 -2.915,0.456 -0.947,0.306 -1.935,0.762 -2.966,1.37 -0.242,0.162 -0.422,0.427 -0.542,0.793 -0.121,0.365 -0.181,0.792 -0.181,1.28 0,3.289 -0.034,8.122 -0.103,14.5 C 0.034,-18.97 0,-14.176 0,-10.967 Z" /></g><g
           transform="translate(713.2627,339.5948)"
           id="g100"><path
             id="path102"
             style="fill:#e3e1e0;fill-opacity:1;fill-rule:nonzero;stroke:none"
             d="M 0,0 C -0.585,-3.091 -1.299,-6.375 -2.141,-9.852 -2.984,-13.33 -3.8,-16.715 -4.591,-20.01 -5.59,-24.118 -6.363,-27.454 -6.912,-30.016 H 3.096 c 0.893,-0.163 1.341,-0.61 1.341,-1.341 -0.31,-3.214 -1.068,-6.101 -2.271,-8.664 -0.138,-0.407 -0.404,-0.732 -0.8,-0.976 -0.394,-0.244 -0.781,-0.366 -1.16,-0.366 -0.517,0 -1.487,-0.051 -2.914,-0.153 -1.428,-0.101 -2.211,-0.152 -2.348,-0.152 -1.031,0 -2.14,0.038 -3.327,0.114 -1.186,0.076 -2.14,0.14 -2.863,0.191 -0.344,0 -1.323,1.118 -2.94,3.355 -1.753,2.441 -2.631,4.168 -2.631,5.186 v 0.366 c 0.792,4.84 1.977,10.697 3.559,17.571 1.375,5.978 2.768,11.957 4.179,17.936 0.068,0.325 0.24,0.59 0.516,0.794 0.274,0.202 0.549,0.304 0.826,0.304 h 0.205 c 1.1,-0.163 2.219,-0.407 3.353,-0.731 0.688,-0.205 1.806,-0.571 3.353,-1.099 0.275,-0.122 0.481,-0.327 0.62,-0.61 C -0.069,1.424 0,1.099 0,0.733 Z" /></g><g
           transform="translate(750.9189,343.6232)"
           id="g104"><path
             id="path106"
             style="fill:#e3e1e0;fill-opacity:1;fill-rule:nonzero;stroke:none"
             d="m 0,0 c 0.24,0 0.438,-0.175 0.594,-0.52 0.153,-0.345 0.231,-0.783 0.231,-1.311 0,-1.383 -0.352,-3.233 -1.056,-5.553 -0.706,-2.317 -1.213,-3.476 -1.523,-3.476 -0.964,0 -2.407,-0.061 -4.334,-0.184 -1.926,-0.122 -3.336,-0.183 -4.229,-0.183 -0.792,0 -2.141,0.061 -4.049,0.183 -1.909,0.123 -2.966,0.184 -3.173,0.184 0.481,-0.166 1.049,-0.404 1.703,-0.713 0.652,-0.311 1.125,-0.519 1.418,-0.621 0.292,-0.104 0.55,-0.342 0.774,-0.713 0.223,-0.372 0.334,-0.808 0.334,-1.303 0,-0.455 -0.145,-1.21 -0.438,-2.264 -0.292,-1.054 -0.456,-1.665 -0.489,-1.829 1.031,0 2.88,-0.042 5.545,-0.123 2.665,-0.082 4.015,-0.122 4.049,-0.122 0.55,0 0.826,-0.646 0.826,-1.94 0,-1.497 -0.353,-3.307 -1.057,-5.431 -0.706,-2.123 -1.316,-3.226 -1.832,-3.305 h -0.723 c -0.55,0 -2.046,0.03 -4.487,0.092 -2.442,0.061 -4.109,0.09 -5.004,0.09 l -1.754,-6.284 1.237,-0.121 h 5.056 2.425 1.806 c 0.136,0 0.257,-0.205 0.361,-0.617 0.102,-0.414 0.154,-0.907 0.154,-1.482 0,-1.688 -0.292,-3.469 -0.877,-5.342 -0.585,-1.873 -1.255,-2.808 -2.011,-2.808 h -13.825 c -0.792,0 -1.685,0.779 -2.682,2.34 -0.997,1.559 -1.581,2.887 -1.755,3.981 v 0.364 c 0,0.73 0.431,2.757 1.29,6.08 0.516,1.985 0.808,3.282 0.878,3.889 -0.757,0 -1.308,0.081 -1.652,0.244 -0.069,0.123 -0.12,0.265 -0.154,0.428 -0.034,0.162 -0.052,0.387 -0.052,0.671 0,1.708 0.292,3.558 0.877,5.552 0.722,2.4 1.53,3.599 2.424,3.599 h 1.031 c 0.173,0.681 0.508,1.912 1.007,3.694 0.498,1.781 0.852,3.113 1.057,3.994 -0.928,0 -1.642,0.07 -2.14,0.213 -0.5,0.141 -0.749,0.356 -0.749,0.641 l 0.105,0.12 c 0.205,1.928 0.455,3.556 0.747,4.882 0.292,1.326 0.764,2.632 1.419,3.918 0.102,0.321 0.378,0.583 0.825,0.784 0.446,0.2 0.997,0.302 1.651,0.302 1.1,0 2.992,0.061 5.674,0.182 2.683,0.123 4.092,0.183 4.23,0.183 1.238,0 3.026,-0.06 5.365,-0.183 C -2.613,0.061 -0.963,0 0,0" /></g><g
           transform="translate(761.2363,332.8839)"
           id="g108"><path
             id="path110"
             style="fill:#e3e1e0;fill-opacity:1;fill-rule:nonzero;stroke:none"
             d="M 0,0 3.817,-1.22 C 4.092,-1.301 4.385,-1.525 4.693,-1.891 5.004,-2.257 5.158,-2.684 5.158,-3.172 5.056,-3.945 4.831,-5.145 4.488,-6.771 4.144,-8.398 3.92,-9.639 3.817,-10.493 l 0.619,-0.121 c 1.445,0 2.889,0.833 4.333,2.501 1.445,1.667 2.168,3.273 2.168,4.82 v 0.243 c 0,1.261 -0.517,2.166 -1.548,2.715 C 8.357,0.215 7.049,0.489 5.468,0.489 4.643,0.489 3.783,0.437 2.888,0.336 1.993,0.233 1.031,0.123 0,0 m -6.596,7.932 c 2.623,1.098 4.815,1.881 6.575,2.349 1.76,0.467 3.642,0.7 5.643,0.7 h 1.347 c 3.83,0 6.989,-1.447 9.473,-4.341 2.313,-2.692 3.469,-5.81 3.469,-9.357 v -0.124 c 0,-3.221 -0.618,-6.013 -1.856,-8.378 -1.548,-2.894 -4.059,-5.198 -7.532,-6.911 2.373,-4.934 4.746,-9.867 7.12,-14.801 l 0.102,-0.733 c 0,-0.571 -0.138,-1.021 -0.413,-1.346 -1.72,-1.63 -3.543,-2.853 -5.468,-3.669 h -0.927 c -0.655,0 -1.033,0.204 -1.136,0.611 -1.341,2.196 -2.803,4.98 -4.385,8.357 -1.375,2.93 -2.733,5.877 -4.075,8.847 -0.757,-4.19 -1.72,-8.258 -2.889,-12.202 -0.102,-0.408 -0.283,-0.793 -0.541,-1.16 -0.258,-0.366 -0.525,-0.548 -0.8,-0.548 l -0.825,-0.122 c -1.067,0 -1.986,0.101 -2.76,0.304 -0.773,0.203 -1.814,0.589 -3.121,1.16 -0.551,0.162 -0.825,0.65 -0.825,1.464 l 0.103,0.366 c 0.309,1.912 0.928,4.982 1.856,9.212 0.93,4.231 1.789,8.033 2.58,11.409 0.275,1.179 1.1,4.595 2.476,10.25 -1.134,-0.286 -2.27,-0.57 -3.405,-0.855 L -7.635,-1.83 c -0.619,0 -0.928,0.406 -0.928,1.221 0,1.545 0.215,3.294 0.647,5.247 0.431,1.952 0.871,3.05 1.32,3.294" /></g><g
           transform="translate(807.043,331.6642)"
           id="g112"><path
             id="path114"
             style="fill:#e3e1e0;fill-opacity:1;fill-rule:nonzero;stroke:none"
             d="m 0,0 c -0.207,-0.162 -0.791,-0.346 -1.754,-0.548 -0.964,-0.205 -1.857,-0.306 -2.683,-0.306 -0.756,0 -1.392,0.082 -1.908,0.244 -0.515,0.162 -0.773,0.406 -0.773,0.732 0,0.326 -0.104,0.631 -0.311,0.916 -0.205,0.283 -0.55,0.426 -1.031,0.426 h -0.206 c -0.585,0 -1.076,-0.253 -1.471,-0.763 -0.395,-0.509 -0.592,-1.026 -0.592,-1.555 v -0.367 c 0.105,-0.569 1.522,-4.127 4.252,-10.675 1.085,-2.603 1.627,-4.943 1.627,-7.017 v -0.976 c 0,-5.125 -1.53,-8.886 -4.589,-11.287 -2.34,-1.83 -5.314,-2.745 -8.925,-2.745 h -1.135 c -2.407,0 -4.145,0.143 -5.211,0.428 -2.027,0.528 -3.042,1.606 -3.042,3.232 0,1.79 0.137,3.498 0.412,5.125 0.276,1.627 0.688,3.417 1.238,5.369 0.103,0.285 0.335,0.569 0.696,0.854 0.362,0.285 0.715,0.467 1.058,0.55 0.344,0.081 0.645,0.132 0.903,0.152 0.258,0.021 0.558,0.031 0.903,0.031 h 0.566 1.162 c 0.394,0 0.851,-0.051 1.367,-0.153 0.515,-0.103 0.911,-0.539 1.185,-1.312 0.069,-0.163 0.105,-0.488 0.105,-0.975 v -1.709 c 0.033,-0.163 0.093,-0.325 0.179,-0.487 0.086,-0.163 0.232,-0.245 0.439,-0.245 0.859,0 1.556,0.294 2.09,0.884 0.532,0.59 0.799,1.272 0.799,2.044 v 0.244 c -0.103,1.343 -1.651,5.125 -4.643,11.348 -1.307,2.725 -1.96,5.084 -1.96,7.077 l 0.103,0.243 c 0,4.597 1.839,8.136 5.52,10.617 2.889,1.953 6.172,2.928 9.853,2.928 h 0.927 c 1.342,0 2.356,-0.031 3.044,-0.092 0.689,-0.06 1.427,-0.273 2.219,-0.64 C 0.791,11.388 1.16,11.032 1.522,10.523 1.883,10.015 2.063,9.519 2.063,9.029 2.063,6.711 1.978,5.043 1.806,4.027 1.496,2.236 0.894,0.895 0,0" /></g><g
           transform="translate(586.1592,336.9113)"
           id="g116"><path
             id="path118"
             style="fill:#87898b;fill-opacity:1;fill-rule:nonzero;stroke:none"
             d="m 0,0 c -0.207,-1.016 -1.005,-1.901 -2.399,-2.653 -1.392,-0.753 -2.725,-1.128 -3.997,-1.128 -0.585,0 -1.076,0.11 -1.471,0.334 -0.396,0.224 -0.636,0.662 -0.722,1.312 -0.086,0.651 -0.181,1.444 -0.283,2.38 l 0.102,0.976 v 0.244 c 0,0.893 -0.343,1.342 -1.031,1.342 -0.344,0 -0.705,-0.121 -1.083,-0.367 -0.379,-0.244 -0.637,-0.487 -0.774,-0.731 -1.41,-2.604 -2.579,-5.43 -3.508,-8.48 -1.169,-3.824 -1.753,-7.504 -1.753,-11.042 l 0.103,-1.586 c 0,-0.53 0.129,-0.926 0.386,-1.191 0.259,-0.264 0.576,-0.397 0.954,-0.397 0.31,0 0.636,0.072 0.981,0.215 0.344,0.141 0.636,0.314 0.876,0.518 0.413,0.365 0.911,1.464 1.496,3.295 0.31,0.934 0.636,1.575 0.981,1.921 0.344,0.345 0.869,0.619 1.574,0.824 0.704,0.202 1.418,0.305 2.14,0.305 1.066,0 1.987,-0.224 2.761,-0.672 0.773,-0.448 1.16,-1.119 1.16,-2.013 0,-4.312 -1.445,-8.155 -4.333,-11.53 -2.889,-3.377 -6.088,-5.064 -9.595,-5.064 -2.786,0 -5.039,1.544 -6.758,4.637 -1.548,2.765 -2.322,5.896 -2.322,9.395 v 1.219 c 0,8.054 1.479,15.049 4.437,20.988 3.474,6.996 8.287,10.494 14.444,10.494 h 0.721 c 2.27,0 4.042,-0.968 5.314,-2.898 C -0.327,8.715 0.31,6.346 0.31,3.539 0.31,2.277 0.207,1.099 0,0" /></g><g
           transform="translate(598.127,339.1075)"
           id="g120"><path
             id="path122"
             style="fill:#87898b;fill-opacity:1;fill-rule:nonzero;stroke:none"
             d="M 0,0 3.817,-1.22 C 4.092,-1.301 4.385,-1.525 4.693,-1.891 5.004,-2.257 5.158,-2.684 5.158,-3.172 5.056,-3.945 4.831,-5.145 4.488,-6.771 4.144,-8.398 3.92,-9.639 3.817,-10.493 l 0.619,-0.121 c 1.445,0 2.889,0.833 4.334,2.501 1.444,1.667 2.167,3.273 2.167,4.82 v 0.243 c 0,1.261 -0.516,2.166 -1.548,2.715 C 8.357,0.215 7.049,0.489 5.468,0.489 4.643,0.489 3.783,0.437 2.889,0.336 1.993,0.233 1.031,0.123 0,0 m -6.596,7.932 c 2.623,1.098 4.815,1.881 6.575,2.349 1.76,0.467 3.642,0.7 5.644,0.7 h 1.346 c 3.83,0 6.989,-1.447 9.473,-4.341 2.313,-2.692 3.469,-5.81 3.469,-9.357 v -0.124 c 0,-3.221 -0.618,-6.013 -1.856,-8.378 -1.548,-2.894 -4.059,-5.198 -7.532,-6.911 2.373,-4.934 4.746,-9.867 7.12,-14.801 l 0.102,-0.733 c 0,-0.571 -0.138,-1.021 -0.413,-1.346 -1.72,-1.63 -3.542,-2.853 -5.468,-3.669 h -0.927 c -0.655,0 -1.033,0.204 -1.136,0.611 -1.341,2.196 -2.803,4.98 -4.385,8.357 -1.375,2.93 -2.733,5.877 -4.075,8.847 -0.757,-4.19 -1.72,-8.258 -2.889,-12.202 -0.102,-0.408 -0.283,-0.793 -0.541,-1.16 -0.258,-0.366 -0.525,-0.548 -0.8,-0.548 l -0.825,-0.122 c -1.067,0 -1.986,0.101 -2.76,0.304 -0.774,0.203 -1.814,0.589 -3.121,1.16 -0.55,0.162 -0.825,0.65 -0.825,1.464 l 0.103,0.366 c 0.309,1.912 0.929,4.982 1.857,9.212 0.928,4.231 1.788,8.033 2.579,11.409 0.275,1.179 1.1,4.595 2.476,10.25 -1.134,-0.286 -2.27,-0.57 -3.404,-0.855 L -7.634,-1.83 c -0.62,0 -0.929,0.406 -0.929,1.221 0,1.545 0.215,3.294 0.646,5.247 0.432,1.952 0.872,3.05 1.321,3.294" /></g><g
           transform="translate(635.0615,333.4952)"
           id="g124"><path
             id="path126"
             style="fill:#87898b;fill-opacity:1;fill-rule:nonzero;stroke:none"
             d="M 0,0 C -0.066,-0.203 -0.513,-1.586 -1.34,-4.148 -1.935,-5.979 -2.349,-7.199 -2.579,-7.81 l 1.754,-0.121 H 0 v 3.78 z M 8.563,12.318 C 8.838,8.571 9.044,5.059 9.182,1.78 9.318,-1.499 9.388,-4.99 9.388,-8.696 c 0,-5.948 -0.272,-11.974 -0.817,-18.083 -0.102,-0.816 -0.518,-1.446 -1.25,-1.894 -0.731,-0.448 -1.573,-0.672 -2.524,-0.672 -1.193,0 -2.289,0.316 -3.293,0.949 C 0.501,-27.763 0,-26.976 0,-26.036 L -0.207,-19.05 0,-15.618 c -0.727,-0.774 -1.436,-1.312 -2.127,-1.616 -0.692,-0.306 -1.471,-0.458 -2.335,-0.458 l -1.764,0.121 c -1.175,-3.352 -2.663,-7.074 -4.46,-11.161 -0.036,-0.164 -0.208,-0.307 -0.519,-0.429 -0.312,-0.123 -0.622,-0.184 -0.933,-0.184 -1.28,0 -2.645,0.429 -4.098,1.288 -1.624,0.981 -2.439,1.983 -2.439,3.004 v 0.368 c 0.207,1.676 0.552,3.167 1.032,4.477 0.379,0.94 0.757,1.899 1.135,2.882 l -0.308,-0.122 c -0.413,0 -0.723,0.122 -0.93,0.366 -0.206,0.244 -0.309,0.527 -0.309,0.854 0.103,1.422 0.353,2.847 0.747,4.271 0.397,1.423 0.939,2.685 1.625,3.782 0.173,0.325 0.474,0.549 0.904,0.671 0.428,0.122 0.92,0.183 1.469,0.183 h 1.445 c 1.512,3.661 3.026,7.321 4.539,10.982 1.789,4.23 3.37,7.81 4.747,10.737 0.343,0.651 0.884,1.138 1.625,1.464 0.738,0.325 1.572,0.49 2.501,0.49 1.65,0 3.232,-0.41 4.746,-1.223 1.513,-0.815 2.27,-1.752 2.27,-2.811" /></g><g
           transform="translate(653.1152,347.8966)"
           id="g128"><path
             id="path130"
             style="fill:#87898b;fill-opacity:1;fill-rule:nonzero;stroke:none"
             d="M 0,0 C 0,0.69 0.163,1.229 0.49,1.615 0.816,2 1.238,2.192 1.754,2.192 H 2.063 C 3.129,1.95 4.204,1.715 5.287,1.492 6.371,1.269 7.428,0.973 8.46,0.606 8.701,0.485 8.915,0.251 9.104,-0.095 9.293,-0.44 9.389,-0.776 9.389,-1.101 v -1.83 c 0,-1.872 -0.051,-4.21 -0.156,-7.016 -0.24,-6.549 -0.36,-10.799 -0.36,-12.751 0.894,2.277 1.856,4.962 2.889,8.052 0.893,2.685 1.787,5.39 2.681,8.116 1.067,3.05 2.098,5.673 3.096,7.87 0.413,0.731 1.135,1.098 2.167,1.098 0.894,0 1.787,-0.144 2.682,-0.427 0.585,-0.163 1.478,-0.55 2.683,-1.159 0.274,0 0.481,-0.328 0.618,-0.977 0,-2.237 0.052,-4.983 0.156,-8.236 0.239,-7.606 0.36,-12.385 0.36,-14.337 0.653,2.277 1.461,4.982 2.425,8.113 1.135,3.701 2.115,6.773 2.94,9.214 1.066,3.172 1.926,5.49 2.579,6.954 0.103,0.284 0.327,0.498 0.67,0.641 0.344,0.141 0.741,0.214 1.188,0.214 h 0.825 C 38.86,2.031 40.58,1.301 41.99,0.243 c 0.482,-0.446 0.723,-1.096 0.723,-1.949 L 42.609,-2.56 c -1.444,-4.792 -2.889,-9.219 -4.333,-13.282 -1.031,-2.924 -2.63,-7.23 -4.797,-12.917 -0.998,-2.598 -2.666,-6.864 -5.003,-12.794 -0.207,-0.529 -0.508,-1.016 -0.904,-1.463 -0.395,-0.447 -0.816,-0.69 -1.263,-0.73 h -1.033 c -0.894,0 -1.805,0.091 -2.733,0.272 -0.929,0.184 -1.875,0.458 -2.837,0.823 -0.276,0.122 -0.552,0.376 -0.825,0.76 -0.277,0.386 -0.413,0.74 -0.413,1.066 l -0.516,20.567 c -0.825,-3.287 -2.134,-7.181 -3.921,-11.683 -1.204,-3.043 -2.648,-6.371 -4.333,-9.98 -0.276,-0.568 -0.671,-1.015 -1.186,-1.339 -0.517,-0.324 -1.084,-0.486 -1.702,-0.486 -0.998,0 -1.97,0.151 -2.915,0.456 -0.946,0.306 -1.935,0.762 -2.966,1.37 -0.242,0.162 -0.421,0.427 -0.542,0.793 -0.121,0.365 -0.181,0.792 -0.181,1.28 0,3.289 -0.034,8.122 -0.102,14.5 C 0.034,-18.97 0,-14.176 0,-10.967 Z" /></g><g
           transform="translate(710.4785,345.8185)"
           id="g132"><path
             id="path134"
             style="fill:#87898b;fill-opacity:1;fill-rule:nonzero;stroke:none"
             d="m 0,0 c -0.586,-3.091 -1.299,-6.375 -2.142,-9.852 -0.842,-3.478 -1.659,-6.863 -2.45,-10.158 -0.998,-4.108 -1.772,-7.444 -2.321,-10.006 H 3.095 c 0.893,-0.163 1.341,-0.61 1.341,-1.341 -0.31,-3.214 -1.067,-6.101 -2.27,-8.664 -0.139,-0.407 -0.405,-0.732 -0.8,-0.976 -0.395,-0.244 -0.782,-0.366 -1.161,-0.366 -0.516,0 -1.487,-0.051 -2.914,-0.153 -1.428,-0.101 -2.21,-0.152 -2.347,-0.152 -1.032,0 -2.141,0.038 -3.327,0.114 -1.186,0.076 -2.141,0.14 -2.863,0.191 -0.345,0 -1.324,1.118 -2.941,3.355 -1.753,2.441 -2.631,4.168 -2.631,5.186 v 0.366 c 0.792,4.84 1.978,10.697 3.559,17.571 1.376,5.978 2.769,11.957 4.179,17.936 0.068,0.325 0.24,0.59 0.516,0.794 0.275,0.202 0.549,0.304 0.826,0.304 h 0.206 C -6.433,3.986 -5.314,3.742 -4.18,3.418 -3.491,3.213 -2.374,2.847 -0.826,2.319 -0.552,2.197 -0.345,1.992 -0.207,1.709 -0.07,1.424 0,1.099 0,0.733 Z" /></g><g
           transform="translate(748.1338,349.8468)"
           id="g136"><path
             id="path138"
             style="fill:#87898b;fill-opacity:1;fill-rule:nonzero;stroke:none"
             d="m 0,0 c 0.24,0 0.438,-0.175 0.594,-0.52 0.154,-0.345 0.231,-0.783 0.231,-1.311 0,-1.383 -0.352,-3.233 -1.056,-5.553 -0.706,-2.317 -1.213,-3.476 -1.523,-3.476 -0.963,0 -2.407,-0.061 -4.333,-0.184 -1.927,-0.122 -3.336,-0.183 -4.229,-0.183 -0.792,0 -2.142,0.061 -4.05,0.183 -1.909,0.123 -2.966,0.184 -3.172,0.184 0.481,-0.166 1.049,-0.404 1.702,-0.713 0.653,-0.311 1.126,-0.519 1.419,-0.621 0.291,-0.104 0.549,-0.342 0.773,-0.713 0.223,-0.372 0.335,-0.808 0.335,-1.303 0,-0.455 -0.146,-1.21 -0.438,-2.264 -0.292,-1.054 -0.457,-1.665 -0.49,-1.829 1.032,0 2.88,-0.042 5.546,-0.123 2.665,-0.082 4.014,-0.122 4.048,-0.122 0.551,0 0.826,-0.646 0.826,-1.94 0,-1.497 -0.353,-3.307 -1.057,-5.431 -0.705,-2.123 -1.315,-3.226 -1.832,-3.305 h -0.722 c -0.551,0 -2.047,0.03 -4.488,0.092 -2.441,0.061 -4.109,0.09 -5.004,0.09 l -1.753,-6.284 1.237,-0.121 h 5.056 2.424 1.806 c 0.136,0 0.257,-0.205 0.361,-0.617 0.103,-0.414 0.154,-0.907 0.154,-1.482 0,-1.688 -0.292,-3.469 -0.876,-5.342 -0.586,-1.873 -1.256,-2.808 -2.012,-2.808 h -13.825 c -0.792,0 -1.685,0.779 -2.682,2.34 -0.996,1.559 -1.581,2.887 -1.754,3.981 v 0.364 c 0,0.73 0.43,2.757 1.289,6.08 0.516,1.985 0.808,3.282 0.878,3.889 -0.757,0 -1.307,0.081 -1.652,0.244 -0.068,0.123 -0.12,0.265 -0.154,0.428 -0.034,0.162 -0.052,0.387 -0.052,0.671 0,1.708 0.293,3.558 0.877,5.552 0.723,2.4 1.53,3.599 2.424,3.599 h 1.032 c 0.172,0.681 0.508,1.912 1.006,3.694 0.498,1.781 0.852,3.113 1.058,3.994 -0.929,0 -1.643,0.07 -2.141,0.213 -0.499,0.141 -0.748,0.356 -0.748,0.641 l 0.104,0.12 c 0.206,1.928 0.455,3.556 0.748,4.882 0.292,1.326 0.764,2.632 1.418,3.918 0.102,0.321 0.378,0.583 0.825,0.784 0.446,0.2 0.998,0.302 1.651,0.302 1.101,0 2.992,0.061 5.675,0.182 2.682,0.123 4.091,0.183 4.23,0.183 1.238,0 3.025,-0.06 5.365,-0.183 C -2.613,0.061 -0.963,0 0,0" /></g><g
           transform="translate(758.4512,339.1075)"
           id="g140"><path
             id="path142"
             style="fill:#87898b;fill-opacity:1;fill-rule:nonzero;stroke:none"
             d="M 0,0 3.817,-1.22 C 4.093,-1.301 4.385,-1.525 4.694,-1.891 5.004,-2.257 5.158,-2.684 5.158,-3.172 5.056,-3.945 4.831,-5.145 4.488,-6.771 4.144,-8.398 3.92,-9.639 3.817,-10.493 l 0.62,-0.121 c 1.444,0 2.888,0.833 4.333,2.501 1.444,1.667 2.167,3.273 2.167,4.82 v 0.243 c 0,1.261 -0.516,2.166 -1.548,2.715 C 8.357,0.215 7.05,0.489 5.468,0.489 4.643,0.489 3.783,0.437 2.889,0.336 1.994,0.233 1.031,0.123 0,0 m -6.596,7.932 c 2.623,1.098 4.815,1.881 6.575,2.349 1.761,0.467 3.642,0.7 5.644,0.7 h 1.346 c 3.831,0 6.989,-1.447 9.473,-4.341 2.313,-2.692 3.469,-5.81 3.469,-9.357 v -0.124 c 0,-3.221 -0.618,-6.013 -1.856,-8.378 -1.548,-2.894 -4.059,-5.198 -7.532,-6.911 2.373,-4.934 4.746,-9.867 7.12,-14.801 l 0.102,-0.733 c 0,-0.571 -0.138,-1.021 -0.413,-1.346 -1.72,-1.63 -3.542,-2.853 -5.468,-3.669 h -0.927 c -0.655,0 -1.032,0.204 -1.136,0.611 -1.341,2.196 -2.803,4.98 -4.385,8.357 -1.375,2.93 -2.733,5.877 -4.075,8.847 -0.757,-4.19 -1.72,-8.258 -2.889,-12.202 -0.102,-0.408 -0.283,-0.793 -0.541,-1.16 -0.258,-0.366 -0.524,-0.548 -0.8,-0.548 l -0.825,-0.122 c -1.066,0 -1.985,0.101 -2.76,0.304 -0.773,0.203 -1.814,0.589 -3.121,1.16 -0.55,0.162 -0.825,0.65 -0.825,1.464 l 0.103,0.366 c 0.309,1.912 0.929,4.982 1.857,9.212 0.929,4.231 1.788,8.033 2.579,11.409 0.276,1.179 1.101,4.595 2.477,10.25 -1.135,-0.286 -2.271,-0.57 -3.405,-0.855 L -7.634,-1.83 c -0.62,0 -0.929,0.406 -0.929,1.221 0,1.545 0.215,3.294 0.647,5.247 0.431,1.952 0.871,3.05 1.32,3.294" /></g><g
           transform="translate(804.2578,337.8878)"
           id="g144"><path
             id="path146"
             style="fill:#87898b;fill-opacity:1;fill-rule:nonzero;stroke:none"
             d="m 0,0 c -0.206,-0.162 -0.791,-0.346 -1.754,-0.548 -0.963,-0.205 -1.856,-0.306 -2.682,-0.306 -0.756,0 -1.392,0.082 -1.908,0.244 -0.516,0.162 -0.774,0.406 -0.774,0.732 0,0.326 -0.104,0.631 -0.311,0.916 -0.205,0.283 -0.55,0.426 -1.031,0.426 h -0.205 c -0.586,0 -1.076,-0.253 -1.472,-0.763 -0.394,-0.509 -0.592,-1.026 -0.592,-1.555 v -0.367 c 0.105,-0.569 1.523,-4.127 4.252,-10.675 1.086,-2.603 1.628,-4.943 1.628,-7.017 v -0.976 c 0,-5.125 -1.531,-8.886 -4.59,-11.287 -2.339,-1.83 -5.314,-2.745 -8.925,-2.745 h -1.134 c -2.408,0 -4.146,0.143 -5.211,0.428 -2.028,0.528 -3.043,1.606 -3.043,3.232 0,1.79 0.137,3.498 0.412,5.125 0.277,1.627 0.689,3.417 1.238,5.369 0.103,0.285 0.335,0.569 0.697,0.854 0.361,0.285 0.714,0.467 1.057,0.55 0.344,0.081 0.645,0.132 0.904,0.152 0.257,0.021 0.557,0.031 0.902,0.031 h 0.567 1.161 c 0.395,0 0.851,-0.051 1.367,-0.153 0.516,-0.103 0.911,-0.539 1.186,-1.312 0.069,-0.163 0.104,-0.488 0.104,-0.975 v -1.709 c 0.033,-0.163 0.094,-0.325 0.18,-0.487 0.085,-0.163 0.232,-0.245 0.438,-0.245 0.859,0 1.556,0.294 2.09,0.884 0.533,0.59 0.799,1.272 0.799,2.044 v 0.244 c -0.103,1.343 -1.651,5.125 -4.643,11.348 -1.307,2.725 -1.959,5.084 -1.959,7.077 l 0.103,0.243 c 0,4.597 1.839,8.136 5.519,10.617 2.889,1.953 6.173,2.928 9.853,2.928 h 0.928 c 1.342,0 2.356,-0.031 3.043,-0.092 0.689,-0.06 1.427,-0.273 2.219,-0.64 0.378,-0.204 0.748,-0.56 1.109,-1.069 C 1.883,10.015 2.063,9.519 2.063,9.029 2.063,6.711 1.978,5.043 1.806,4.027 1.496,2.236 0.894,0.895 0,0" /></g></g></g></g></svg>