<?xml version="1.0" encoding="UTF-8" standalone="no"?>
<svg
   xmlns:dc="http://purl.org/dc/elements/1.1/"
   xmlns:cc="http://creativecommons.org/ns#"
   xmlns:rdf="http://www.w3.org/1999/02/22-rdf-syntax-ns#"
   xmlns:svg="http://www.w3.org/2000/svg"
   xmlns="http://www.w3.org/2000/svg"
   viewBox="0 0 1587.4 1122.52"
   height="1122.52"
   width="1587.4"
   xml:space="preserve"
   id="svg2"
   version="1.1"><metadata
     id="metadata8"><rdf:RDF><cc:Work
         rdf:about=""><dc:format>image/svg+xml</dc:format><dc:type
           rdf:resource="http://purl.org/dc/dcmitype/StillImage" /></cc:Work></rdf:RDF></metadata><defs
     id="defs6"><clipPath
       id="clipPath42"
       clipPathUnits="userSpaceOnUse"><path
         id="path40"
         d="M 0,841.89 H 1190.551 V 0 H 0 Z" /></clipPath></defs><g
     transform="matrix(1.3333333,0,0,-1.3333333,0,1122.52)"
     id="g10"><g
       transform="translate(429.1143,427.5948)"
       id="g12"><path
         id="path14"
         style="fill:#fbd9e7;fill-opacity:1;fill-rule:nonzero;stroke:none"
         d="M 0,0 -11.943,-23.189 H 15.661 Z" /></g><g
       transform="translate(550.894,380.9386)"
       id="g16"><path
         id="path18"
         style="fill:#e3e1e0;fill-opacity:1;fill-rule:nonzero;stroke:none"
         d="m 0,0 2.245,-4.444 -3.863,-10.415 -4.191,-11.927 h 27.69 L 6.303,5.696 Z" /></g><g
       transform="translate(508.5679,555.8024)"
       id="g20"><path
         id="path22"
         style="fill:#e3e1e0;fill-opacity:1;fill-rule:nonzero;stroke:none"
         d="m 0,0 -13.659,-27.042 4.108,-8.399 6.107,12.44 93.003,-185.933 -178.19,-0.935 8.265,16.485 h -17.315 l -12.526,-24.798 h 220.415 z" /></g><g
       transform="translate(469.4541,542.1696)"
       id="g24"><path
         id="path26"
         style="fill:#e3e1e0;fill-opacity:1;fill-rule:nonzero;stroke:none"
         d="m 0,0 25.89,-51.256 4.238,8.142 -37.014,73.279 -110.207,-218.182 H -2.664 l 10.206,22.307 -88.217,0.608 z" /></g><g
       transform="translate(509.4746,354.1525)"
       id="g28"><path
         id="path30"
         style="fill:#fbd9e7;fill-opacity:1;fill-rule:nonzero;stroke:none"
         d="M 0,0 10.206,22.307 -9.438,22.442 -20.133,0 Z" /></g><g
       transform="translate(530.0005,404.4054)"
       id="g32"><path
         id="path34"
         style="fill:#87898b;fill-opacity:1;fill-rule:nonzero;stroke:none"
         d="m 0,0 23.964,0.585 -41.302,74.662 -30.035,-46.1 -27.666,42.464 -10.186,-20.319 6.807,-10.349 19.651,-29.525 -0.024,-0.036 7.044,-11.023 h 0.023 l 11.213,17.723 16.989,25.936 z" /></g><g
       id="g36"><g
         clip-path="url(#clipPath42)"
         id="g38"><g
           transform="translate(642.2773,371.3663)"
           id="g44"><path
             id="path46"
             style="fill:#e3e1e0;fill-opacity:1;fill-rule:nonzero;stroke:none"
             d="m 0,0 c -0.193,-0.952 -0.941,-1.781 -2.246,-2.485 -1.305,-0.705 -2.553,-1.057 -3.744,-1.057 -0.547,0 -1.007,0.104 -1.377,0.313 -0.37,0.21 -0.596,0.62 -0.676,1.229 -0.08,0.609 -0.169,1.352 -0.266,2.229 l 0.097,0.914 v 0.228 c 0,0.837 -0.322,1.257 -0.967,1.257 -0.321,0 -0.66,-0.114 -1.013,-0.343 -0.355,-0.228 -0.597,-0.456 -0.725,-0.685 -1.321,-2.438 -2.415,-5.085 -3.285,-7.942 -1.095,-3.58 -1.642,-7.027 -1.642,-10.34 l 0.096,-1.485 c 0,-0.496 0.121,-0.867 0.362,-1.115 0.242,-0.247 0.539,-0.371 0.894,-0.371 0.29,0 0.596,0.066 0.918,0.2 0.322,0.133 0.595,0.295 0.821,0.485 0.387,0.343 0.853,1.372 1.4,3.086 0.29,0.875 0.596,1.475 0.918,1.799 0.323,0.323 0.814,0.58 1.475,0.771 0.659,0.191 1.328,0.287 2.004,0.287 0.998,0 1.86,-0.21 2.585,-0.629 0.725,-0.42 1.087,-1.048 1.087,-1.885 0,-4.039 -1.354,-7.638 -4.059,-10.799 -2.704,-3.162 -5.7,-4.742 -8.984,-4.742 -2.609,0 -4.719,1.447 -6.329,4.343 -1.449,2.589 -2.174,5.521 -2.174,8.798 v 1.142 c 0,7.542 1.386,14.092 4.155,19.653 3.252,6.551 7.761,9.828 13.527,9.828 h 0.674 c 2.126,0 3.785,-0.907 4.977,-2.714 C -0.307,8.16 0.29,5.941 0.29,3.313 0.29,2.132 0.193,1.028 0,0" /></g><g
           transform="translate(653.4844,373.423)"
           id="g48"><path
             id="path50"
             style="fill:#e3e1e0;fill-opacity:1;fill-rule:nonzero;stroke:none"
             d="M 0,0 3.574,-1.143 C 3.832,-1.219 4.105,-1.429 4.396,-1.771 4.686,-2.113 4.83,-2.513 4.83,-2.971 4.734,-3.695 4.523,-4.818 4.203,-6.342 3.88,-7.865 3.671,-9.026 3.574,-9.826 L 4.153,-9.94 c 1.354,0 2.706,0.78 4.059,2.342 1.352,1.561 2.029,3.065 2.029,4.514 v 0.228 c 0,1.18 -0.483,2.028 -1.449,2.543 C 7.826,0.2 6.602,0.457 5.12,0.457 4.347,0.457 3.542,0.409 2.704,0.314 1.867,0.219 0.966,0.114 0,0 m -6.177,7.427 c 2.456,1.029 4.508,1.761 6.156,2.2 1.65,0.437 3.412,0.656 5.287,0.656 h 1.259 c 3.587,0 6.545,-1.355 8.872,-4.066 2.165,-2.521 3.249,-5.441 3.249,-8.761 V -2.66 c 0,-3.017 -0.58,-5.632 -1.739,-7.846 -1.449,-2.711 -3.801,-4.868 -7.053,-6.472 2.222,-4.621 4.444,-9.24 6.667,-13.86 l 0.096,-0.687 c 0,-0.535 -0.129,-0.955 -0.387,-1.26 -1.61,-1.527 -3.317,-2.672 -5.12,-3.436 h -0.869 c -0.612,0 -0.966,0.191 -1.063,0.572 -1.256,2.056 -2.625,4.664 -4.107,7.826 -1.287,2.743 -2.559,5.504 -3.816,8.284 -0.708,-3.923 -1.61,-7.732 -2.704,-11.426 -0.097,-0.382 -0.266,-0.743 -0.507,-1.086 -0.242,-0.343 -0.492,-0.514 -0.749,-0.514 l -0.774,-0.114 c -0.999,0 -1.859,0.095 -2.583,0.285 -0.725,0.19 -1.7,0.552 -2.923,1.086 -0.515,0.152 -0.773,0.609 -0.773,1.371 l 0.096,0.343 c 0.29,1.79 0.87,4.665 1.739,8.627 0.87,3.961 1.675,7.522 2.415,10.683 0.258,1.104 1.03,4.304 2.32,9.598 -1.063,-0.266 -2.126,-0.533 -3.189,-0.799 l -0.772,-0.229 c -0.58,0 -0.871,0.38 -0.871,1.143 0,1.447 0.203,3.085 0.607,4.914 0.403,1.827 0.815,2.856 1.236,3.084" /></g><g
           transform="translate(688.0713,368.1671)"
           id="g52"><path
             id="path54"
             style="fill:#e3e1e0;fill-opacity:1;fill-rule:nonzero;stroke:none"
             d="M 0,0 C -0.062,-0.19 -0.48,-1.485 -1.255,-3.886 -1.812,-5.6 -2.199,-6.742 -2.415,-7.313 l 1.643,-0.114 H 0 v 3.539 z M 8.019,11.535 C 8.276,8.026 8.47,4.736 8.598,1.667 c 0.129,-3.07 0.193,-6.34 0.193,-9.811 0,-5.569 -0.255,-11.212 -0.764,-16.933 -0.096,-0.764 -0.486,-1.355 -1.171,-1.774 -0.685,-0.42 -1.473,-0.629 -2.364,-0.629 -1.116,0 -2.143,0.295 -3.084,0.889 C 0.469,-25.998 0,-25.262 0,-24.381 l -0.193,6.542 0.193,3.214 c -0.681,-0.725 -1.345,-1.229 -1.992,-1.515 -0.648,-0.286 -1.377,-0.428 -2.186,-0.428 l -1.652,0.114 c -1.101,-3.139 -2.493,-6.624 -4.177,-10.452 -0.033,-0.154 -0.194,-0.287 -0.485,-0.403 -0.292,-0.114 -0.584,-0.171 -0.874,-0.171 -1.199,0 -2.478,0.402 -3.838,1.207 -1.522,0.918 -2.283,1.856 -2.283,2.812 v 0.345 c 0.193,1.569 0.515,2.966 0.966,4.192 0.354,0.881 0.709,1.778 1.063,2.698 l -0.29,-0.114 c -0.387,0 -0.677,0.114 -0.87,0.343 -0.194,0.228 -0.289,0.494 -0.289,0.8 0.095,1.333 0.33,2.666 0.7,4 0.37,1.332 0.878,2.513 1.521,3.541 0.162,0.304 0.444,0.514 0.846,0.629 0.402,0.114 0.861,0.172 1.376,0.172 h 1.354 c 1.416,3.427 2.833,6.855 4.25,10.283 1.674,3.961 3.156,7.313 4.445,10.054 0.321,0.61 0.828,1.067 1.521,1.372 0.692,0.305 1.473,0.458 2.343,0.458 1.545,0 3.027,-0.383 4.444,-1.145 1.417,-0.763 2.126,-1.641 2.126,-2.632" /></g><g
           transform="translate(704.9775,381.6534)"
           id="g56"><path
             id="path58"
             style="fill:#e3e1e0;fill-opacity:1;fill-rule:nonzero;stroke:none"
             d="m 0,0 c 0,0.646 0.152,1.15 0.459,1.512 0.306,0.36 0.7,0.541 1.184,0.541 h 0.29 C 2.931,1.825 3.938,1.605 4.951,1.396 5.967,1.187 6.956,0.91 7.922,0.567 8.147,0.454 8.349,0.234 8.526,-0.09 8.702,-0.413 8.792,-0.728 8.792,-1.031 v -1.714 c 0,-1.753 -0.048,-3.942 -0.146,-6.57 -0.224,-6.133 -0.336,-10.114 -0.336,-11.941 0.836,2.132 1.738,4.647 2.704,7.541 0.837,2.514 1.674,5.047 2.511,7.599 0.998,2.856 1.965,5.312 2.899,7.37 0.387,0.685 1.063,1.027 2.029,1.027 0.837,0 1.674,-0.134 2.512,-0.399 0.548,-0.153 1.385,-0.514 2.513,-1.085 0.256,0 0.45,-0.306 0.579,-0.914 0,-2.096 0.047,-4.667 0.145,-7.713 0.225,-7.122 0.338,-11.599 0.338,-13.426 0.611,2.132 1.368,4.665 2.27,7.598 1.063,3.466 1.981,6.343 2.753,8.628 0.999,2.969 1.804,5.141 2.416,6.511 0.096,0.267 0.306,0.467 0.627,0.601 0.323,0.133 0.693,0.199 1.112,0.199 h 0.773 c 1.9,-0.38 3.51,-1.064 4.83,-2.053 0.451,-0.419 0.677,-1.027 0.677,-1.826 l -0.097,-0.799 c -1.352,-4.488 -2.705,-8.634 -4.057,-12.438 -0.966,-2.738 -2.464,-6.771 -4.493,-12.097 -0.934,-2.433 -2.496,-6.427 -4.685,-11.98 -0.194,-0.495 -0.476,-0.952 -0.846,-1.37 -0.371,-0.419 -0.765,-0.647 -1.184,-0.685 H 23.67 c -0.838,0 -1.691,0.085 -2.56,0.256 -0.87,0.172 -1.756,0.429 -2.657,0.771 -0.258,0.113 -0.516,0.35 -0.772,0.711 -0.259,0.362 -0.387,0.693 -0.387,0.998 l -0.483,19.26 c -0.773,-3.079 -1.998,-6.725 -3.671,-10.941 -1.127,-2.85 -2.481,-5.965 -4.058,-9.345 -0.259,-0.532 -0.629,-0.951 -1.111,-1.254 -0.484,-0.303 -1.015,-0.456 -1.594,-0.456 -0.935,0 -1.845,0.143 -2.73,0.428 -0.885,0.286 -1.811,0.713 -2.777,1.283 -0.225,0.152 -0.394,0.4 -0.508,0.742 -0.113,0.343 -0.169,0.743 -0.169,1.2 0,3.08 -0.032,7.605 -0.096,13.578 C 0.032,-17.765 0,-13.275 0,-10.271 Z" /></g><g
           transform="translate(758.6943,379.7072)"
           id="g60"><path
             id="path62"
             style="fill:#e3e1e0;fill-opacity:1;fill-rule:nonzero;stroke:none"
             d="m 0,0 c -0.548,-2.895 -1.216,-5.97 -2.005,-9.226 -0.789,-3.257 -1.554,-6.427 -2.294,-9.512 -0.935,-3.848 -1.66,-6.971 -2.174,-9.37 h 9.371 c 0.837,-0.153 1.256,-0.572 1.256,-1.256 -0.289,-3.01 -0.999,-5.714 -2.125,-8.114 -0.13,-0.38 -0.38,-0.685 -0.75,-0.914 -0.369,-0.229 -0.731,-0.342 -1.087,-0.342 -0.482,0 -1.392,-0.048 -2.728,-0.143 -1.337,-0.095 -2.069,-0.144 -2.198,-0.144 -0.966,0 -2.005,0.037 -3.116,0.108 -1.111,0.071 -2.004,0.131 -2.681,0.179 -0.323,0 -1.24,1.046 -2.753,3.142 -1.643,2.285 -2.464,3.903 -2.464,4.856 v 0.342 c 0.741,4.533 1.852,10.017 3.333,16.455 1.288,5.598 2.592,11.198 3.913,16.795 0.064,0.305 0.226,0.553 0.482,0.744 0.258,0.189 0.516,0.286 0.775,0.286 h 0.192 C -6.022,3.732 -4.976,3.504 -3.913,3.2 -3.269,3.009 -2.223,2.666 -0.773,2.172 -0.516,2.058 -0.322,1.865 -0.193,1.601 -0.064,1.333 0,1.029 0,0.687 Z" /></g><g
           transform="translate(793.957,383.4786)"
           id="g64"><path
             id="path66"
             style="fill:#e3e1e0;fill-opacity:1;fill-rule:nonzero;stroke:none"
             d="M 0,0 C 0.225,0 0.411,-0.163 0.556,-0.486 0.7,-0.81 0.773,-1.22 0.773,-1.714 c 0,-1.296 -0.33,-3.028 -0.99,-5.2 -0.66,-2.17 -1.136,-3.256 -1.426,-3.256 -0.901,0 -2.253,-0.057 -4.057,-0.172 -1.804,-0.113 -3.124,-0.171 -3.961,-0.171 -0.741,0 -2.005,0.058 -3.792,0.171 -1.787,0.115 -2.777,0.172 -2.971,0.172 0.451,-0.155 0.983,-0.377 1.595,-0.667 0.611,-0.291 1.054,-0.485 1.328,-0.581 0.272,-0.098 0.515,-0.32 0.725,-0.669 0.209,-0.348 0.313,-0.755 0.313,-1.22 0,-0.425 -0.137,-1.132 -0.41,-2.12 -0.274,-0.987 -0.428,-1.558 -0.459,-1.713 0.966,0 2.696,-0.039 5.193,-0.114 2.495,-0.077 3.76,-0.114 3.791,-0.114 0.516,0 0.774,-0.606 0.774,-1.818 0,-1.401 -0.33,-3.096 -0.99,-5.085 -0.661,-1.988 -1.232,-3.02 -1.715,-3.095 h -0.677 c -0.515,0 -1.916,0.028 -4.202,0.086 -2.287,0.056 -3.849,0.085 -4.687,0.085 l -1.641,-5.885 1.159,-0.114 h 4.734 2.27 1.69 c 0.129,0 0.242,-0.192 0.339,-0.578 0.097,-0.386 0.145,-0.848 0.145,-1.387 0,-1.581 -0.274,-3.248 -0.821,-5.002 -0.549,-1.755 -1.176,-2.631 -1.884,-2.631 H -22.8 c -0.741,0 -1.578,0.73 -2.512,2.192 -0.933,1.46 -1.481,2.704 -1.643,3.728 v 0.342 c 0,0.682 0.404,2.581 1.208,5.692 0.482,1.859 0.757,3.073 0.821,3.643 -0.708,0 -1.223,0.076 -1.546,0.228 -0.064,0.115 -0.112,0.248 -0.144,0.401 -0.032,0.152 -0.048,0.362 -0.048,0.629 0,1.598 0.273,3.332 0.82,5.198 0.677,2.247 1.433,3.371 2.271,3.371 h 0.966 c 0.161,0.638 0.475,1.79 0.942,3.458 0.466,1.668 0.798,2.916 0.99,3.74 -0.869,0 -1.538,0.066 -2.004,0.2 -0.468,0.133 -0.701,0.333 -0.701,0.6 l 0.097,0.113 c 0.192,1.806 0.427,3.329 0.7,4.571 0.273,1.243 0.716,2.465 1.328,3.669 0.097,0.302 0.355,0.546 0.774,0.735 0.418,0.187 0.933,0.282 1.545,0.282 1.031,0 2.802,0.057 5.314,0.171 2.512,0.115 3.832,0.172 3.961,0.172 1.16,0 2.834,-0.057 5.024,-0.172 C -2.447,0.057 -0.901,0 0,0" /></g><g
           transform="translate(803.6191,373.423)"
           id="g68"><path
             id="path70"
             style="fill:#e3e1e0;fill-opacity:1;fill-rule:nonzero;stroke:none"
             d="M 0,0 3.574,-1.143 C 3.832,-1.219 4.105,-1.429 4.396,-1.771 4.686,-2.113 4.83,-2.513 4.83,-2.971 4.734,-3.695 4.523,-4.818 4.203,-6.342 3.88,-7.865 3.671,-9.026 3.574,-9.826 L 4.153,-9.94 c 1.354,0 2.706,0.78 4.059,2.342 1.352,1.561 2.029,3.065 2.029,4.514 v 0.228 c 0,1.18 -0.483,2.028 -1.449,2.543 C 7.826,0.2 6.602,0.457 5.12,0.457 4.347,0.457 3.542,0.409 2.704,0.314 1.867,0.219 0.966,0.114 0,0 m -6.177,7.427 c 2.456,1.029 4.508,1.761 6.156,2.2 1.65,0.437 3.412,0.656 5.286,0.656 h 1.26 c 3.587,0 6.545,-1.355 8.872,-4.066 2.165,-2.521 3.249,-5.441 3.249,-8.761 V -2.66 c 0,-3.017 -0.58,-5.632 -1.739,-7.846 -1.449,-2.711 -3.801,-4.868 -7.053,-6.472 2.222,-4.621 4.444,-9.24 6.667,-13.86 l 0.096,-0.687 c 0,-0.535 -0.129,-0.955 -0.387,-1.26 -1.61,-1.527 -3.317,-2.672 -5.12,-3.436 h -0.869 c -0.612,0 -0.966,0.191 -1.063,0.572 -1.256,2.056 -2.625,4.664 -4.107,7.826 -1.287,2.743 -2.559,5.504 -3.816,8.284 -0.708,-3.923 -1.61,-7.732 -2.704,-11.426 -0.097,-0.382 -0.266,-0.743 -0.507,-1.086 -0.242,-0.343 -0.492,-0.514 -0.749,-0.514 l -0.774,-0.114 c -0.999,0 -1.859,0.095 -2.583,0.285 -0.725,0.19 -1.7,0.552 -2.923,1.086 -0.515,0.152 -0.773,0.609 -0.773,1.371 l 0.096,0.343 c 0.29,1.79 0.87,4.665 1.739,8.627 0.87,3.961 1.675,7.522 2.415,10.683 0.258,1.104 1.03,4.304 2.32,9.598 -1.063,-0.266 -2.126,-0.533 -3.189,-0.799 l -0.772,-0.229 c -0.58,0 -0.871,0.38 -0.871,1.143 0,1.447 0.203,3.085 0.607,4.914 0.403,1.827 0.815,2.856 1.236,3.084" /></g><g
           transform="translate(846.5146,372.2804)"
           id="g72"><path
             id="path74"
             style="fill:#e3e1e0;fill-opacity:1;fill-rule:nonzero;stroke:none"
             d="m 0,0 c -0.194,-0.152 -0.741,-0.324 -1.643,-0.514 -0.902,-0.191 -1.739,-0.285 -2.511,-0.285 -0.709,0 -1.305,0.075 -1.787,0.228 -0.484,0.151 -0.725,0.38 -0.725,0.685 0,0.305 -0.098,0.591 -0.291,0.858 -0.192,0.265 -0.515,0.399 -0.966,0.399 h -0.192 c -0.548,0 -1.008,-0.237 -1.378,-0.714 -0.369,-0.476 -0.555,-0.962 -0.555,-1.456 v -0.344 c 0.099,-0.534 1.426,-3.865 3.983,-9.998 1.016,-2.437 1.524,-4.628 1.524,-6.57 v -0.914 c 0,-4.799 -1.434,-8.322 -4.299,-10.569 -2.19,-1.714 -4.975,-2.572 -8.357,-2.572 h -1.063 c -2.255,0 -3.882,0.135 -4.88,0.402 -1.899,0.494 -2.848,1.504 -2.848,3.027 0,1.676 0.128,3.275 0.385,4.799 0.258,1.523 0.645,3.199 1.16,5.028 0.096,0.266 0.314,0.532 0.652,0.799 0.338,0.267 0.669,0.438 0.99,0.515 0.322,0.075 0.604,0.123 0.846,0.142 0.241,0.019 0.522,0.03 0.845,0.03 h 0.531 1.087 c 0.37,0 0.798,-0.049 1.28,-0.144 0.483,-0.096 0.854,-0.505 1.11,-1.228 0.065,-0.153 0.098,-0.458 0.098,-0.915 v -1.599 c 0.031,-0.153 0.088,-0.305 0.169,-0.456 0.08,-0.154 0.217,-0.23 0.41,-0.23 0.805,0 1.457,0.277 1.957,0.828 0.499,0.553 0.748,1.191 0.748,1.914 v 0.229 c -0.095,1.258 -1.545,4.8 -4.347,10.626 -1.224,2.553 -1.835,4.762 -1.835,6.629 l 0.096,0.227 c 0,4.304 1.723,7.618 5.169,9.941 2.705,1.829 5.78,2.743 9.227,2.743 h 0.869 c 1.256,0 2.205,-0.029 2.85,-0.086 0.644,-0.057 1.336,-0.257 2.078,-0.601 0.353,-0.19 0.7,-0.523 1.038,-1 C 1.763,9.378 1.932,8.913 1.932,8.456 1.932,6.284 1.852,4.722 1.69,3.771 1.4,2.094 0.836,0.838 0,0" /></g><g
           transform="translate(639.6699,377.1945)"
           id="g76"><path
             id="path78"
             style="fill:#87898b;fill-opacity:1;fill-rule:nonzero;stroke:none"
             d="m 0,0 c -0.194,-0.952 -0.942,-1.781 -2.247,-2.485 -1.304,-0.705 -2.552,-1.057 -3.743,-1.057 -0.548,0 -1.007,0.104 -1.377,0.313 -0.371,0.21 -0.597,0.62 -0.677,1.229 -0.08,0.609 -0.169,1.352 -0.265,2.229 l 0.096,0.914 v 0.228 c 0,0.837 -0.321,1.257 -0.966,1.257 -0.321,0 -0.66,-0.114 -1.014,-0.343 -0.355,-0.228 -0.596,-0.456 -0.725,-0.685 -1.32,-2.438 -2.415,-5.085 -3.285,-7.942 -1.094,-3.58 -1.642,-7.027 -1.642,-10.34 l 0.097,-1.485 c 0,-0.496 0.121,-0.867 0.362,-1.115 0.241,-0.247 0.539,-0.371 0.894,-0.371 0.289,0 0.595,0.066 0.918,0.2 0.321,0.133 0.595,0.295 0.82,0.485 0.387,0.343 0.854,1.372 1.401,3.086 0.29,0.875 0.596,1.475 0.918,1.799 0.323,0.323 0.814,0.58 1.474,0.771 0.66,0.191 1.329,0.287 2.004,0.287 0.998,0 1.86,-0.21 2.585,-0.63 0.725,-0.419 1.087,-1.047 1.087,-1.884 0,-4.039 -1.353,-7.638 -4.058,-10.799 -2.705,-3.162 -5.7,-4.742 -8.984,-4.742 -2.61,0 -4.719,1.447 -6.329,4.343 -1.449,2.589 -2.174,5.521 -2.174,8.798 v 1.142 c 0,7.542 1.385,14.092 4.155,19.653 3.252,6.551 7.76,9.828 13.526,9.828 h 0.675 c 2.126,0 3.785,-0.907 4.976,-2.714 C -0.307,8.16 0.289,5.941 0.289,3.313 0.289,2.132 0.193,1.028 0,0" /></g><g
           transform="translate(650.876,379.2511)"
           id="g80"><path
             id="path82"
             style="fill:#87898b;fill-opacity:1;fill-rule:nonzero;stroke:none"
             d="M 0,0 3.575,-1.143 C 3.833,-1.219 4.106,-1.429 4.396,-1.771 4.687,-2.113 4.831,-2.514 4.831,-2.971 4.734,-3.695 4.524,-4.818 4.203,-6.342 3.881,-7.865 3.671,-9.026 3.575,-9.826 L 4.154,-9.94 c 1.353,0 2.706,0.78 4.058,2.342 1.353,1.561 2.03,3.065 2.03,4.513 v 0.229 c 0,1.179 -0.483,2.028 -1.449,2.543 C 7.826,0.2 6.602,0.457 5.12,0.457 4.348,0.457 3.543,0.409 2.705,0.314 1.867,0.219 0.967,0.114 0,0 m -6.176,7.427 c 2.456,1.029 4.508,1.761 6.156,2.2 1.65,0.437 3.411,0.656 5.286,0.656 h 1.26 c 3.587,0 6.545,-1.355 8.871,-4.066 2.166,-2.521 3.249,-5.441 3.249,-8.762 V -2.66 c 0,-3.017 -0.579,-5.632 -1.739,-7.846 -1.449,-2.711 -3.8,-4.868 -7.053,-6.472 2.223,-4.621 4.445,-9.241 6.667,-13.86 l 0.097,-0.687 c 0,-0.535 -0.13,-0.955 -0.388,-1.26 -1.61,-1.527 -3.316,-2.672 -5.12,-3.436 h -0.868 c -0.613,0 -0.967,0.191 -1.063,0.572 -1.256,2.056 -2.625,4.664 -4.107,7.826 -1.288,2.743 -2.559,5.504 -3.816,8.284 -0.708,-3.923 -1.61,-7.732 -2.705,-11.426 -0.096,-0.382 -0.265,-0.743 -0.507,-1.086 -0.241,-0.343 -0.491,-0.514 -0.749,-0.514 l -0.773,-0.114 c -0.999,0 -1.859,0.095 -2.584,0.285 -0.724,0.19 -1.699,0.552 -2.922,1.086 -0.516,0.152 -0.773,0.609 -0.773,1.371 l 0.096,0.343 c 0.29,1.79 0.87,4.665 1.739,8.627 0.869,3.961 1.674,7.522 2.415,10.683 0.258,1.104 1.03,4.304 2.319,9.598 -1.062,-0.266 -2.125,-0.533 -3.188,-0.799 l -0.772,-0.229 c -0.581,0 -0.871,0.38 -0.871,1.143 0,1.447 0.203,3.085 0.606,4.914 0.404,1.827 0.816,2.856 1.237,3.084" /></g><g
           transform="translate(685.4629,373.9952)"
           id="g84"><path
             id="path86"
             style="fill:#87898b;fill-opacity:1;fill-rule:nonzero;stroke:none"
             d="M 0,0 C -0.062,-0.19 -0.479,-1.485 -1.254,-3.886 -1.811,-5.6 -2.199,-6.742 -2.415,-7.313 l 1.643,-0.114 H 0 v 3.539 z M 8.02,11.535 C 8.276,8.026 8.47,4.736 8.599,1.667 c 0.128,-3.071 0.193,-6.34 0.193,-9.811 0,-5.569 -0.255,-11.212 -0.765,-16.934 -0.095,-0.763 -0.485,-1.354 -1.171,-1.773 -0.684,-0.42 -1.473,-0.629 -2.364,-0.629 -1.116,0 -2.143,0.295 -3.083,0.889 C 0.47,-25.998 0,-25.262 0,-24.382 l -0.193,6.543 0.193,3.213 c -0.68,-0.724 -1.344,-1.228 -1.991,-1.514 -0.649,-0.286 -1.378,-0.428 -2.187,-0.428 l -1.651,0.114 c -1.102,-3.14 -2.494,-6.624 -4.177,-10.452 -0.033,-0.154 -0.194,-0.287 -0.486,-0.403 -0.291,-0.114 -0.583,-0.171 -0.873,-0.171 -1.199,0 -2.479,0.402 -3.839,1.207 -1.521,0.918 -2.283,1.856 -2.283,2.812 v 0.345 c 0.193,1.569 0.516,2.966 0.966,4.192 0.355,0.881 0.709,1.778 1.063,2.698 l -0.289,-0.114 c -0.387,0 -0.677,0.114 -0.87,0.343 -0.194,0.228 -0.29,0.494 -0.29,0.8 0.096,1.333 0.331,2.666 0.7,4 0.371,1.332 0.879,2.513 1.522,3.541 0.162,0.304 0.444,0.514 0.845,0.629 0.402,0.114 0.861,0.172 1.377,0.172 h 1.353 l 4.251,10.283 c 1.674,3.961 3.155,7.313 4.444,10.054 0.322,0.61 0.828,1.066 1.522,1.372 0.692,0.305 1.473,0.458 2.342,0.458 1.546,0 3.028,-0.383 4.445,-1.145 1.417,-0.763 2.126,-1.641 2.126,-2.632" /></g><g
           transform="translate(702.3701,387.4816)"
           id="g88"><path
             id="path90"
             style="fill:#87898b;fill-opacity:1;fill-rule:nonzero;stroke:none"
             d="m 0,0 c 0,0.646 0.152,1.15 0.459,1.512 0.306,0.36 0.7,0.541 1.184,0.541 H 1.932 C 2.93,1.825 3.937,1.605 4.951,1.396 5.966,1.187 6.956,0.91 7.922,0.567 8.147,0.454 8.349,0.234 8.525,-0.09 8.702,-0.413 8.792,-0.728 8.792,-1.031 v -1.714 c 0,-1.753 -0.048,-3.942 -0.146,-6.57 -0.225,-6.133 -0.337,-10.114 -0.337,-11.941 0.837,2.132 1.739,4.647 2.705,7.541 0.837,2.514 1.674,5.047 2.511,7.599 0.998,2.856 1.964,5.312 2.899,7.37 0.387,0.685 1.063,1.027 2.029,1.027 0.837,0 1.674,-0.134 2.512,-0.399 0.547,-0.153 1.384,-0.514 2.513,-1.085 0.255,0 0.449,-0.307 0.579,-0.914 0,-2.096 0.047,-4.667 0.145,-7.713 0.225,-7.123 0.337,-11.599 0.337,-13.426 0.612,2.132 1.368,4.665 2.271,7.598 1.063,3.466 1.981,6.343 2.753,8.628 0.998,2.969 1.803,5.141 2.416,6.511 0.096,0.267 0.305,0.467 0.627,0.601 0.322,0.133 0.693,0.199 1.112,0.199 h 0.772 c 1.901,-0.38 3.51,-1.064 4.831,-2.053 0.451,-0.419 0.677,-1.027 0.677,-1.827 l -0.097,-0.798 c -1.352,-4.488 -2.706,-8.634 -4.057,-12.439 -0.967,-2.738 -2.464,-6.77 -4.493,-12.096 -0.934,-2.433 -2.496,-6.427 -4.686,-11.98 -0.193,-0.495 -0.476,-0.952 -0.845,-1.37 -0.371,-0.419 -0.765,-0.647 -1.184,-0.685 H 23.67 c -0.838,0 -1.691,0.085 -2.56,0.256 -0.87,0.172 -1.756,0.429 -2.657,0.77 -0.259,0.114 -0.516,0.351 -0.772,0.712 -0.259,0.362 -0.387,0.693 -0.387,0.998 l -0.483,19.26 c -0.773,-3.079 -1.998,-6.725 -3.671,-10.941 -1.128,-2.85 -2.481,-5.965 -4.059,-9.345 -0.258,-0.532 -0.628,-0.951 -1.111,-1.254 -0.483,-0.303 -1.014,-0.456 -1.593,-0.456 -0.936,0 -1.845,0.142 -2.73,0.428 -0.886,0.286 -1.811,0.713 -2.778,1.283 -0.225,0.152 -0.394,0.4 -0.507,0.742 -0.113,0.343 -0.169,0.743 -0.169,1.2 0,3.08 -0.032,7.605 -0.096,13.578 C 0.031,-17.765 0,-13.275 0,-10.271 Z" /></g><g
           transform="translate(756.0869,385.5353)"
           id="g92"><path
             id="path94"
             style="fill:#87898b;fill-opacity:1;fill-rule:nonzero;stroke:none"
             d="m 0,0 c -0.548,-2.895 -1.216,-5.97 -2.005,-9.226 -0.79,-3.257 -1.554,-6.427 -2.295,-9.512 -0.934,-3.848 -1.659,-6.971 -2.174,-9.37 h 9.372 c 0.837,-0.153 1.256,-0.572 1.256,-1.256 -0.29,-3.01 -0.999,-5.714 -2.126,-8.115 -0.129,-0.379 -0.379,-0.684 -0.749,-0.913 -0.37,-0.229 -0.732,-0.342 -1.087,-0.342 -0.483,0 -1.392,-0.048 -2.728,-0.143 -1.337,-0.095 -2.07,-0.144 -2.198,-0.144 -0.966,0 -2.005,0.037 -3.116,0.108 -1.111,0.071 -2.004,0.131 -2.681,0.179 -0.323,0 -1.24,1.046 -2.753,3.142 -1.643,2.285 -2.465,3.903 -2.465,4.856 v 0.342 c 0.742,4.533 1.853,10.017 3.334,16.455 1.287,5.598 2.592,11.198 3.912,16.795 0.065,0.305 0.226,0.553 0.483,0.744 0.258,0.189 0.515,0.286 0.774,0.286 h 0.192 C -6.023,3.732 -4.976,3.504 -3.914,3.2 -3.27,3.008 -2.223,2.666 -0.773,2.172 -0.516,2.058 -0.322,1.865 -0.193,1.601 -0.065,1.333 0,1.028 0,0.687 Z" /></g><g
           transform="translate(791.3496,389.3068)"
           id="g96"><path
             id="path98"
             style="fill:#87898b;fill-opacity:1;fill-rule:nonzero;stroke:none"
             d="M 0,0 C 0.225,0 0.41,-0.163 0.556,-0.486 0.7,-0.81 0.772,-1.22 0.772,-1.714 c 0,-1.296 -0.33,-3.028 -0.989,-5.2 -0.66,-2.17 -1.136,-3.256 -1.426,-3.256 -0.902,0 -2.253,-0.057 -4.057,-0.172 -1.805,-0.113 -3.124,-0.171 -3.961,-0.171 -0.742,0 -2.005,0.058 -3.792,0.171 -1.788,0.115 -2.777,0.172 -2.971,0.172 0.45,-0.155 0.982,-0.377 1.594,-0.667 0.611,-0.291 1.055,-0.485 1.329,-0.581 0.272,-0.098 0.514,-0.32 0.725,-0.669 0.208,-0.348 0.312,-0.755 0.312,-1.22 0,-0.425 -0.137,-1.132 -0.41,-2.12 -0.273,-0.987 -0.427,-1.558 -0.458,-1.713 0.966,0 2.696,-0.039 5.192,-0.114 2.496,-0.077 3.76,-0.114 3.792,-0.114 0.516,0 0.773,-0.606 0.773,-1.818 0,-1.401 -0.33,-3.096 -0.989,-5.085 -0.661,-1.988 -1.233,-3.02 -1.716,-3.095 h -0.676 c -0.516,0 -1.916,0.028 -4.202,0.086 -2.287,0.056 -3.849,0.085 -4.687,0.085 l -1.641,-5.885 1.158,-0.114 h 4.734 2.271 1.69 c 0.128,0 0.241,-0.192 0.339,-0.578 0.096,-0.386 0.145,-0.848 0.145,-1.387 0,-1.581 -0.274,-3.248 -0.822,-5.002 -0.548,-1.755 -1.175,-2.631 -1.883,-2.631 H -22.8 c -0.742,0 -1.579,0.73 -2.512,2.192 -0.934,1.46 -1.481,2.704 -1.643,3.728 v 0.342 c 0,0.682 0.403,2.581 1.207,5.692 0.483,1.859 0.757,3.073 0.822,3.643 -0.709,0 -1.223,0.076 -1.547,0.228 -0.063,0.115 -0.112,0.248 -0.143,0.401 -0.032,0.152 -0.049,0.362 -0.049,0.629 0,1.598 0.273,3.332 0.821,5.198 0.677,2.247 1.432,3.371 2.27,3.371 h 0.967 c 0.161,0.637 0.475,1.79 0.942,3.458 0.466,1.668 0.797,2.916 0.989,3.74 -0.869,0 -1.537,0.066 -2.004,0.2 -0.467,0.133 -0.701,0.333 -0.701,0.6 l 0.098,0.113 c 0.192,1.806 0.427,3.329 0.7,4.571 0.273,1.243 0.716,2.465 1.328,3.669 0.097,0.302 0.354,0.546 0.773,0.735 0.418,0.187 0.934,0.282 1.546,0.282 1.031,0 2.801,0.057 5.314,0.171 2.512,0.115 3.832,0.172 3.961,0.172 1.159,0 2.833,-0.057 5.023,-0.172 C -2.447,0.057 -0.902,0 0,0" /></g><g
           transform="translate(801.0107,379.2511)"
           id="g100"><path
             id="path102"
             style="fill:#87898b;fill-opacity:1;fill-rule:nonzero;stroke:none"
             d="M 0,0 3.575,-1.143 C 3.833,-1.219 4.106,-1.429 4.396,-1.771 4.687,-2.113 4.831,-2.514 4.831,-2.971 4.734,-3.695 4.524,-4.818 4.203,-6.342 3.881,-7.865 3.671,-9.026 3.575,-9.826 L 4.154,-9.94 c 1.353,0 2.706,0.78 4.058,2.342 1.353,1.561 2.029,3.065 2.029,4.513 v 0.229 c 0,1.179 -0.482,2.028 -1.448,2.543 C 7.826,0.2 6.602,0.457 5.12,0.457 4.348,0.457 3.543,0.409 2.705,0.314 1.867,0.219 0.966,0.114 0,0 m -6.176,7.427 c 2.456,1.029 4.508,1.761 6.156,2.2 1.65,0.437 3.411,0.656 5.286,0.656 h 1.26 c 3.587,0 6.545,-1.355 8.871,-4.066 2.166,-2.521 3.249,-5.441 3.249,-8.762 V -2.66 c 0,-3.017 -0.579,-5.632 -1.739,-7.846 -1.449,-2.711 -3.8,-4.868 -7.053,-6.472 2.223,-4.621 4.445,-9.241 6.667,-13.86 l 0.097,-0.687 c 0,-0.535 -0.13,-0.955 -0.388,-1.26 -1.61,-1.527 -3.316,-2.672 -5.12,-3.436 h -0.869 c -0.612,0 -0.966,0.191 -1.062,0.572 -1.256,2.056 -2.625,4.664 -4.107,7.826 -1.288,2.743 -2.559,5.504 -3.816,8.284 -0.708,-3.923 -1.61,-7.732 -2.705,-11.426 -0.096,-0.382 -0.265,-0.743 -0.507,-1.086 -0.241,-0.343 -0.491,-0.514 -0.749,-0.514 l -0.773,-0.114 c -0.999,0 -1.859,0.095 -2.584,0.285 -0.724,0.19 -1.699,0.552 -2.922,1.086 -0.516,0.152 -0.774,0.609 -0.774,1.371 l 0.097,0.343 c 0.29,1.79 0.87,4.665 1.739,8.627 0.869,3.961 1.674,7.522 2.415,10.683 0.258,1.104 1.03,4.304 2.319,9.598 -1.062,-0.266 -2.125,-0.533 -3.188,-0.799 l -0.772,-0.229 c -0.581,0 -0.871,0.38 -0.871,1.143 0,1.447 0.203,3.085 0.606,4.914 0.404,1.827 0.816,2.856 1.237,3.084" /></g><g
           transform="translate(843.9062,378.1085)"
           id="g104"><path
             id="path106"
             style="fill:#87898b;fill-opacity:1;fill-rule:nonzero;stroke:none"
             d="m 0,0 c -0.193,-0.152 -0.74,-0.324 -1.643,-0.514 -0.901,-0.192 -1.738,-0.285 -2.511,-0.285 -0.708,0 -1.304,0.075 -1.787,0.228 -0.483,0.151 -0.725,0.38 -0.725,0.685 0,0.305 -0.097,0.591 -0.29,0.858 -0.192,0.265 -0.516,0.399 -0.966,0.399 h -0.193 c -0.548,0 -1.007,-0.237 -1.377,-0.714 -0.37,-0.476 -0.555,-0.962 -0.555,-1.456 v -0.344 c 0.098,-0.534 1.426,-3.865 3.983,-9.998 1.015,-2.437 1.523,-4.628 1.523,-6.57 v -0.914 c 0,-4.799 -1.433,-8.322 -4.298,-10.569 -2.191,-1.714 -4.976,-2.572 -8.357,-2.572 h -1.063 c -2.255,0 -3.882,0.135 -4.88,0.402 -1.899,0.494 -2.849,1.504 -2.849,3.027 0,1.676 0.129,3.275 0.385,4.799 0.259,1.523 0.645,3.199 1.161,5.028 0.095,0.266 0.313,0.532 0.651,0.799 0.339,0.267 0.669,0.438 0.991,0.515 0.321,0.075 0.604,0.123 0.845,0.142 0.242,0.019 0.523,0.03 0.846,0.03 h 0.531 1.087 c 0.37,0 0.797,-0.049 1.28,-0.144 0.483,-0.096 0.853,-0.505 1.11,-1.228 0.065,-0.153 0.098,-0.458 0.098,-0.915 v -1.599 c 0.03,-0.153 0.087,-0.305 0.169,-0.456 0.08,-0.154 0.217,-0.23 0.41,-0.23 0.805,0 1.457,0.277 1.957,0.828 0.499,0.553 0.748,1.191 0.748,1.914 v 0.229 c -0.096,1.258 -1.546,4.799 -4.347,10.626 -1.224,2.552 -1.835,4.762 -1.835,6.628 l 0.095,0.228 c 0,4.304 1.723,7.618 5.17,9.941 2.705,1.829 5.78,2.743 9.226,2.743 h 0.869 c 1.257,0 2.206,-0.029 2.851,-0.086 0.644,-0.057 1.336,-0.257 2.077,-0.601 0.354,-0.19 0.7,-0.523 1.039,-1 C 1.764,9.378 1.933,8.913 1.933,8.455 1.933,6.284 1.853,4.722 1.69,3.771 1.401,2.094 0.837,0.838 0,0" /></g><g
           transform="translate(583.0098,427.4279)"
           id="g108"><path
             id="path110"
             style="fill:#e3e1e0;fill-opacity:1;fill-rule:nonzero;stroke:none"
             d="M 0,0 C -0.079,-0.227 -0.606,-1.767 -1.584,-4.622 -2.287,-6.66 -2.776,-8.02 -3.049,-8.699 l 2.073,-0.136 H 0 v 4.211 z m 10.123,13.722 c 0.325,-4.175 0.569,-8.087 0.731,-11.739 0.163,-3.652 0.245,-7.542 0.245,-11.67 0,-6.625 -0.322,-13.337 -0.965,-20.143 -0.122,-0.908 -0.613,-1.61 -1.478,-2.109 -0.865,-0.499 -1.861,-0.749 -2.985,-0.749 -1.409,0 -2.706,0.352 -3.893,1.058 C 0.592,-30.925 0,-30.049 0,-29.002 L -0.244,-21.22 0,-17.397 c -0.859,-0.862 -1.697,-1.461 -2.514,-1.801 -0.819,-0.34 -1.739,-0.51 -2.76,-0.51 l -2.086,0.136 c -1.39,-3.735 -3.148,-7.879 -5.273,-12.434 -0.041,-0.182 -0.245,-0.341 -0.613,-0.477 -0.368,-0.137 -0.736,-0.205 -1.103,-0.205 -1.514,0 -3.128,0.478 -4.845,1.435 -1.92,1.093 -2.883,2.209 -2.883,3.346 v 0.41 c 0.244,1.866 0.652,3.528 1.22,4.987 0.448,1.047 0.896,2.115 1.342,3.209 l -0.365,-0.135 c -0.489,0 -0.854,0.135 -1.099,0.408 -0.244,0.272 -0.365,0.588 -0.365,0.952 0.121,1.584 0.417,3.171 0.884,4.757 0.468,1.585 1.108,2.99 1.921,4.213 0.204,0.362 0.56,0.611 1.067,0.747 0.507,0.136 1.087,0.204 1.738,0.204 h 1.708 c 1.788,4.077 3.577,8.155 5.366,12.233 2.114,4.712 3.984,8.699 5.611,11.96 0.406,0.725 1.046,1.268 1.921,1.631 0.873,0.363 1.859,0.544 2.958,0.544 1.951,0 3.82,-0.455 5.609,-1.361 1.79,-0.907 2.684,-1.952 2.684,-3.13" /></g><g
           transform="translate(608.5,443.8722)"
           id="g112"><path
             id="path114"
             style="fill:#e3e1e0;fill-opacity:1;fill-rule:nonzero;stroke:none"
             d="m 0,0 c 0.122,0.634 0.508,1.111 1.159,1.428 0.65,0.318 1.403,0.477 2.256,0.477 1.343,0 2.814,-0.318 4.421,-0.952 1.606,-0.635 2.734,-1.359 3.386,-2.174 1.177,-1.632 2.032,-3.58 2.56,-5.844 0.406,-1.859 1.22,-6.888 2.44,-15.088 0.609,3.463 1.423,7.177 2.439,11.14 1.545,5.969 2.44,9.455 2.684,10.457 0.04,0.637 0.365,1.208 0.975,1.709 0.61,0.501 1.179,0.752 1.708,0.752 h 0.244 c 1.057,0 2.124,-0.217 3.202,-0.65 1.077,-0.431 2.164,-1.033 3.262,-1.806 0.202,-0.138 0.416,-0.456 0.64,-0.955 0.224,-0.502 0.336,-1.094 0.336,-1.775 v -0.682 c -0.855,-3.777 -1.973,-8.302 -3.355,-13.578 -0.528,-2.048 -1.768,-6.551 -3.719,-13.511 -1.667,-6.005 -2.887,-10.439 -3.659,-13.304 l -0.123,-0.82 c 0.326,-0.545 0.489,-1.046 0.489,-1.501 v -0.408 c -0.041,-0.593 -0.449,-1.081 -1.22,-1.467 -0.773,-0.387 -1.708,-0.58 -2.805,-0.58 -1.83,0 -3.517,0.452 -5.062,1.361 -1.789,1.045 -2.826,2.407 -3.111,4.087 -0.731,3.68 -1.443,8.674 -2.133,14.986 -0.489,4.496 -0.834,7.538 -1.036,9.128 -1.994,-9.672 -4.27,-18.796 -6.832,-27.373 -0.122,-0.502 -0.387,-0.981 -0.792,-1.438 -0.407,-0.457 -0.833,-0.706 -1.282,-0.751 H -5 c -1.058,0 -2.023,0.102 -2.896,0.305 -0.875,0.205 -1.74,0.556 -2.592,1.056 -0.285,0.136 -0.498,0.429 -0.641,0.884 -0.142,0.453 -0.214,0.975 -0.214,1.566 l 0.122,1.36 c 1.139,4.991 2.318,9.867 3.537,14.631 0.081,0.408 1.382,5.331 3.904,14.767 C -1.87,-7.304 -0.609,-2.452 0,0" /></g><g
           transform="translate(659.6523,446.4567)"
           id="g116"><path
             id="path118"
             style="fill:#e3e1e0;fill-opacity:1;fill-rule:nonzero;stroke:none"
             d="m 0,0 h 0.486 c 3.404,0 6.361,-1.02 8.872,-3.059 2.917,-2.356 4.375,-5.595 4.375,-9.718 v -2.174 c 0,-0.815 -0.883,-1.564 -2.652,-2.243 -1.768,-0.68 -3.527,-1.02 -5.275,-1.02 -1.139,0 -2.073,0.193 -2.805,0.579 -0.731,0.384 -1.098,0.917 -1.098,1.597 0,2.899 -0.699,4.35 -2.094,4.35 -2.465,0 -4.724,-2.209 -6.778,-6.626 -2.054,-4.418 -3.081,-8.87 -3.081,-13.354 V -33.3 c 0,-1.813 0.224,-3.422 0.672,-4.825 0.446,-1.406 1.117,-2.106 2.012,-2.106 0.894,0 1.778,0.463 2.652,1.392 0.874,0.928 1.495,1.96 1.86,3.092 h -0.244 l -1.096,-0.136 -0.855,0.272 c -0.122,0.181 -0.295,0.407 -0.517,0.68 -0.225,0.271 -0.336,0.498 -0.336,0.68 0,1.539 0.07,2.898 0.213,4.077 0.141,1.177 0.396,2.356 0.762,3.535 0.161,0.497 0.478,0.917 0.946,1.257 0.466,0.339 0.964,0.553 1.493,0.645 1.545,0.407 3.325,0.736 5.337,0.986 2.012,0.248 4.014,0.373 6.005,0.373 h 2.928 c 0.406,0 0.752,-0.227 1.036,-0.68 0.286,-0.453 0.428,-0.906 0.428,-1.359 v -0.815 c 0,-1.087 -0.082,-2.106 -0.244,-3.059 -0.163,-0.951 -0.569,-2.197 -1.22,-3.737 -0.203,-0.454 -0.559,-0.76 -1.066,-0.917 -0.509,-0.159 -0.967,-0.306 -1.373,-0.442 -0.447,-4.35 -2.48,-8.473 -6.098,-12.369 -3.619,-3.898 -7.318,-5.844 -11.099,-5.844 -3.497,0 -6.546,1.676 -9.147,5.028 -2.602,3.354 -3.903,7.431 -3.903,12.234 v 0.407 c 0,8.653 1.68,16.332 5.043,23.038 C -11.892,-3.965 -6.604,0 0,0" /></g><g
           transform="translate(694.4863,427.4279)"
           id="g120"><path
             id="path122"
             style="fill:#e3e1e0;fill-opacity:1;fill-rule:nonzero;stroke:none"
             d="M 0,0 C -0.079,-0.227 -0.606,-1.767 -1.585,-4.622 -2.287,-6.66 -2.776,-8.02 -3.05,-8.699 l 2.074,-0.136 H 0 v 4.211 z m 10.123,13.722 c 0.325,-4.175 0.569,-8.087 0.731,-11.739 0.162,-3.652 0.245,-7.542 0.245,-11.67 0,-6.625 -0.323,-13.337 -0.965,-20.143 -0.122,-0.908 -0.613,-1.61 -1.479,-2.109 -0.864,-0.499 -1.86,-0.749 -2.984,-0.749 -1.409,0 -2.707,0.352 -3.893,1.058 C 0.592,-30.925 0,-30.049 0,-29.002 L -0.244,-21.22 0,-17.397 c -0.859,-0.862 -1.697,-1.461 -2.515,-1.801 -0.818,-0.34 -1.739,-0.51 -2.759,-0.51 l -2.086,0.136 c -1.39,-3.735 -3.148,-7.879 -5.273,-12.434 -0.042,-0.182 -0.245,-0.341 -0.613,-0.477 -0.368,-0.137 -0.736,-0.205 -1.104,-0.205 -1.513,0 -3.128,0.478 -4.844,1.435 -1.92,1.093 -2.883,2.209 -2.883,3.346 v 0.41 c 0.244,1.866 0.651,3.528 1.22,4.987 0.448,1.047 0.895,2.115 1.342,3.209 l -0.366,-0.135 c -0.488,0 -0.853,0.135 -1.098,0.408 -0.244,0.272 -0.366,0.588 -0.366,0.952 0.122,1.584 0.417,3.171 0.884,4.757 0.468,1.585 1.109,2.99 1.921,4.213 0.204,0.362 0.561,0.611 1.067,0.747 0.508,0.136 1.088,0.204 1.739,0.204 h 1.708 c 1.788,4.077 3.576,8.155 5.365,12.233 2.114,4.712 3.984,8.699 5.611,11.96 0.406,0.725 1.046,1.268 1.922,1.631 0.873,0.363 1.859,0.544 2.957,0.544 1.951,0 3.821,-0.455 5.61,-1.361 1.79,-0.907 2.684,-1.952 2.684,-3.13" /></g><g
           transform="translate(575.9961,436.3654)"
           id="g124"><path
             id="path126"
             style="fill:#87898b;fill-opacity:1;fill-rule:nonzero;stroke:none"
             d="M 0,0 C -0.079,-0.227 -0.606,-1.767 -1.584,-4.622 -2.287,-6.66 -2.776,-8.02 -3.049,-8.699 l 2.073,-0.135 H 0 v 4.21 z m 10.123,13.722 c 0.325,-4.175 0.569,-8.087 0.731,-11.739 0.162,-3.652 0.245,-7.542 0.245,-11.67 0,-6.625 -0.322,-13.337 -0.965,-20.143 -0.122,-0.908 -0.613,-1.61 -1.478,-2.109 -0.865,-0.499 -1.861,-0.749 -2.985,-0.749 -1.409,0 -2.706,0.352 -3.893,1.058 C 0.592,-30.925 0,-30.049 0,-29.002 L -0.244,-21.22 0,-17.397 c -0.859,-0.862 -1.697,-1.461 -2.514,-1.801 -0.819,-0.34 -1.739,-0.51 -2.76,-0.51 l -2.086,0.136 c -1.39,-3.735 -3.148,-7.879 -5.273,-12.434 -0.041,-0.182 -0.245,-0.341 -0.613,-0.477 -0.368,-0.137 -0.736,-0.205 -1.103,-0.205 -1.514,0 -3.128,0.478 -4.845,1.435 -1.92,1.093 -2.883,2.209 -2.883,3.346 v 0.41 c 0.244,1.866 0.652,3.528 1.22,4.987 0.448,1.047 0.896,2.115 1.342,3.209 l -0.365,-0.135 c -0.489,0 -0.854,0.135 -1.099,0.408 -0.244,0.272 -0.365,0.588 -0.365,0.952 0.121,1.584 0.417,3.17 0.884,4.757 0.468,1.584 1.108,2.99 1.921,4.213 0.204,0.362 0.56,0.611 1.067,0.747 0.507,0.136 1.087,0.204 1.738,0.204 h 1.708 c 1.788,4.078 3.577,8.155 5.366,12.233 2.114,4.712 3.984,8.699 5.611,11.96 0.406,0.725 1.046,1.268 1.921,1.631 0.873,0.363 1.859,0.544 2.958,0.544 1.95,0 3.82,-0.455 5.609,-1.361 1.79,-0.907 2.684,-1.952 2.684,-3.13" /></g><g
           transform="translate(601.4863,452.8097)"
           id="g128"><path
             id="path130"
             style="fill:#87898b;fill-opacity:1;fill-rule:nonzero;stroke:none"
             d="m 0,0 c 0.122,0.634 0.508,1.111 1.159,1.428 0.65,0.318 1.403,0.477 2.256,0.477 1.343,0 2.814,-0.318 4.421,-0.952 1.606,-0.635 2.734,-1.359 3.386,-2.174 1.177,-1.632 2.032,-3.58 2.56,-5.844 0.406,-1.859 1.22,-6.888 2.44,-15.088 0.609,3.463 1.423,7.177 2.439,11.14 1.545,5.969 2.44,9.455 2.684,10.457 0.04,0.637 0.365,1.208 0.975,1.709 0.61,0.501 1.179,0.752 1.708,0.752 h 0.244 c 1.057,0 2.124,-0.217 3.202,-0.65 1.077,-0.431 2.164,-1.033 3.262,-1.806 0.202,-0.138 0.416,-0.456 0.64,-0.955 0.224,-0.502 0.336,-1.094 0.336,-1.775 v -0.682 c -0.855,-3.777 -1.973,-8.302 -3.355,-13.578 -0.528,-2.047 -1.768,-6.551 -3.719,-13.51 -1.667,-6.005 -2.887,-10.44 -3.659,-13.305 l -0.123,-0.82 c 0.326,-0.545 0.489,-1.046 0.489,-1.501 v -0.408 c -0.041,-0.593 -0.449,-1.081 -1.22,-1.467 -0.773,-0.387 -1.708,-0.58 -2.806,-0.58 -1.829,0 -3.516,0.452 -5.061,1.361 -1.789,1.045 -2.826,2.407 -3.111,4.087 -0.731,3.68 -1.443,8.674 -2.133,14.986 -0.489,4.496 -0.834,7.538 -1.036,9.128 -1.994,-9.672 -4.27,-18.796 -6.832,-27.373 -0.122,-0.502 -0.387,-0.981 -0.792,-1.438 -0.408,-0.457 -0.833,-0.706 -1.282,-0.751 H -5 c -1.058,0 -2.023,0.102 -2.896,0.305 -0.875,0.205 -1.74,0.556 -2.592,1.056 -0.285,0.136 -0.498,0.429 -0.641,0.884 -0.142,0.453 -0.213,0.975 -0.213,1.566 l 0.121,1.36 c 1.138,4.991 2.318,9.867 3.537,14.631 0.081,0.408 1.382,5.33 3.904,14.767 C -1.87,-7.304 -0.609,-2.452 0,0" /></g><g
           transform="translate(652.6387,455.3942)"
           id="g132"><path
             id="path134"
             style="fill:#87898b;fill-opacity:1;fill-rule:nonzero;stroke:none"
             d="m 0,0 h 0.486 c 3.404,0 6.361,-1.02 8.872,-3.059 2.917,-2.356 4.375,-5.595 4.375,-9.718 v -2.174 c 0,-0.815 -0.883,-1.564 -2.652,-2.243 -1.768,-0.68 -3.527,-1.02 -5.275,-1.02 -1.139,0 -2.073,0.193 -2.805,0.579 -0.731,0.384 -1.098,0.917 -1.098,1.597 0,2.899 -0.699,4.35 -2.094,4.35 -2.465,0 -4.724,-2.209 -6.778,-6.626 -2.054,-4.418 -3.081,-8.87 -3.081,-13.355 V -33.3 c 0,-1.813 0.224,-3.422 0.672,-4.825 0.446,-1.406 1.117,-2.106 2.012,-2.106 0.894,0 1.778,0.463 2.652,1.392 0.874,0.928 1.495,1.96 1.86,3.092 h -0.244 l -1.096,-0.136 -0.855,0.272 c -0.123,0.181 -0.295,0.407 -0.517,0.68 -0.225,0.272 -0.336,0.497 -0.336,0.68 0,1.539 0.07,2.898 0.213,4.077 0.141,1.177 0.396,2.356 0.761,3.534 0.162,0.498 0.479,0.918 0.947,1.258 0.466,0.339 0.964,0.553 1.493,0.645 1.545,0.407 3.324,0.736 5.337,0.986 2.012,0.248 4.014,0.373 6.005,0.373 h 2.928 c 0.406,0 0.752,-0.227 1.036,-0.68 0.286,-0.453 0.428,-0.906 0.428,-1.359 v -0.815 c 0,-1.087 -0.082,-2.106 -0.244,-3.058 -0.163,-0.952 -0.569,-2.198 -1.22,-3.738 -0.203,-0.454 -0.559,-0.759 -1.067,-0.917 -0.508,-0.159 -0.966,-0.306 -1.372,-0.442 -0.447,-4.35 -2.48,-8.472 -6.098,-12.369 -3.619,-3.898 -7.318,-5.844 -11.099,-5.844 -3.497,0 -6.546,1.676 -9.147,5.028 -2.602,3.354 -3.903,7.431 -3.903,12.233 v 0.408 c 0,8.653 1.68,16.332 5.043,23.038 C -11.892,-3.965 -6.604,0 0,0" /></g><g
           transform="translate(687.4727,436.3654)"
           id="g136"><path
             id="path138"
             style="fill:#87898b;fill-opacity:1;fill-rule:nonzero;stroke:none"
             d="M 0,0 C -0.079,-0.227 -0.606,-1.767 -1.585,-4.622 -2.287,-6.66 -2.776,-8.02 -3.05,-8.699 l 2.074,-0.135 H 0 v 4.21 z m 10.123,13.722 c 0.325,-4.175 0.569,-8.087 0.731,-11.739 0.162,-3.652 0.245,-7.542 0.245,-11.67 0,-6.625 -0.323,-13.337 -0.965,-20.143 -0.122,-0.908 -0.614,-1.61 -1.479,-2.109 -0.864,-0.499 -1.86,-0.749 -2.985,-0.749 -1.408,0 -2.706,0.352 -3.892,1.058 C 0.592,-30.925 0,-30.049 0,-29.002 L -0.244,-21.22 0,-17.397 c -0.859,-0.862 -1.697,-1.461 -2.515,-1.801 -0.818,-0.34 -1.739,-0.51 -2.759,-0.51 l -2.086,0.136 c -1.39,-3.735 -3.148,-7.879 -5.273,-12.434 -0.042,-0.182 -0.245,-0.341 -0.613,-0.477 -0.368,-0.137 -0.736,-0.205 -1.104,-0.205 -1.513,0 -3.128,0.478 -4.844,1.435 -1.921,1.093 -2.883,2.209 -2.883,3.346 v 0.41 c 0.244,1.866 0.651,3.528 1.22,4.987 0.448,1.047 0.895,2.115 1.341,3.209 l -0.365,-0.135 c -0.488,0 -0.853,0.135 -1.098,0.408 -0.245,0.272 -0.366,0.588 -0.366,0.952 0.121,1.584 0.417,3.17 0.884,4.757 0.468,1.584 1.109,2.99 1.921,4.213 0.204,0.362 0.561,0.611 1.067,0.747 0.508,0.136 1.088,0.204 1.739,0.204 h 1.708 c 1.787,4.078 3.576,8.155 5.365,12.233 2.114,4.712 3.984,8.699 5.611,11.96 0.406,0.725 1.046,1.268 1.922,1.631 0.873,0.363 1.858,0.544 2.957,0.544 1.951,0 3.821,-0.455 5.61,-1.361 1.79,-0.907 2.684,-1.952 2.684,-3.13" /></g></g></g></g></svg>